<?xml version="1.0" encoding="utf-8"?>
<!-- Generator: Adobe Illustrator 21.1.0, SVG Export Plug-In . SVG Version: 6.00 Build 0)  -->
<svg version="1.1" id="Icons" xmlns="http://www.w3.org/2000/svg" xmlns:xlink="http://www.w3.org/1999/xlink" x="0px" y="0px"
	 viewBox="0 0 48 48" style="enable-background:new 0 0 48 48;" xml:space="preserve">
<style type="text/css">
	.st0{opacity:0.15;fill:#45413C;}
	.st1{fill:#BF8256;}
	.st2{fill:#915E3A;}
	.st3{fill:none;stroke:#45413C;stroke-linecap:round;stroke-linejoin:round;stroke-miterlimit:10;}
	.st4{fill:#DEA47A;}
	.st5{fill:#DAEDF7;stroke:#45413C;stroke-linecap:round;stroke-linejoin:round;stroke-miterlimit:10;}
	.st6{fill:#BF8256;stroke:#45413C;stroke-linecap:round;stroke-linejoin:round;stroke-miterlimit:10;}
	.st7{fill:#FF6242;}
	.st8{fill:#FF866E;}
	.st9{fill:#DEBB7E;}
	.st10{fill:#B89558;}
	.st11{fill:#656769;}
	.st12{fill:#525252;}
	.st13{fill:#E04122;}
	.st14{fill:#FFFFFF;}
	.st15{fill:#F0F0F0;}
	.st16{fill:#00B8F0;}
	.st17{fill:#4ACFFF;}
	.st18{fill:#C0DCEB;}
	.st19{fill:#8CA4B8;}
	.st20{fill:#FF6242;stroke:#45413C;stroke-linecap:round;stroke-linejoin:round;stroke-miterlimit:10;}
	.st21{fill:#87898C;}
	.st22{fill:#E0E0E0;}
	.st23{fill:#E8F4FA;stroke:#45413C;stroke-linecap:round;stroke-linejoin:round;stroke-miterlimit:10;}
	.st24{fill:#656769;stroke:#45413C;stroke-linecap:round;stroke-linejoin:round;stroke-miterlimit:10;}
	.st25{fill:#DAEDF7;}
	.st26{fill:#E8F4FA;}
	.st27{fill:#ADC4D9;stroke:#45413C;stroke-linecap:round;stroke-linejoin:round;stroke-miterlimit:10;}
	.st28{fill:#87898C;stroke:#45413C;stroke-linecap:round;stroke-linejoin:round;stroke-miterlimit:10;}
	.st29{fill:#BDBEC0;}
	.st30{fill:#FFFFFF;stroke:#45413C;stroke-linecap:round;stroke-linejoin:round;stroke-miterlimit:10;}
	.st31{fill:#ADC4D9;}
	.st32{fill:none;stroke:#00AED9;stroke-linecap:round;stroke-linejoin:round;stroke-miterlimit:10;}
	.st33{fill:#FFFACF;}
	.st34{fill:#FFE500;}
	.st35{fill:#915E3A;stroke:#45413C;stroke-linecap:round;stroke-linejoin:round;stroke-miterlimit:10;}
	.st36{fill:#FFAA54;}
	.st37{fill:#627B8C;stroke:#45413C;stroke-linecap:round;stroke-linejoin:round;stroke-miterlimit:10;}
	.st38{fill:#FFFEF2;}
	.st39{fill:#FFFCE5;stroke:#45413C;stroke-linecap:round;stroke-linejoin:round;stroke-miterlimit:10;}
	.st40{fill:#00F5BC;}
	.st41{fill:#FFFCE5;}
	.st42{fill:#FFFEF2;stroke:#45413C;stroke-linecap:round;stroke-linejoin:round;stroke-miterlimit:10;}
	.st43{fill:#8CFFE4;}
	.st44{fill:#FFF5E3;}
	.st45{fill:#F7E5C6;}
	.st46{fill:#F7E5C6;stroke:#45413C;stroke-linecap:round;stroke-linejoin:round;stroke-miterlimit:10;}
	.st47{fill:#F0D5A8;}
	.st48{fill:#FF87AF;stroke:#45413C;stroke-linecap:round;stroke-linejoin:round;stroke-miterlimit:10;}
	.st49{fill:#45413C;}
	.st50{fill:#BDBEC0;stroke:#45413C;stroke-linecap:round;stroke-linejoin:round;stroke-miterlimit:10;}
	.st51{fill:#E0E0E0;stroke:#45413C;stroke-linecap:round;stroke-linejoin:round;stroke-miterlimit:10;}
	.st52{fill:#DEBB7E;stroke:#45413C;stroke-linecap:round;stroke-linejoin:round;stroke-miterlimit:10;}
	.st53{fill:#F5EBFF;stroke:#45413C;stroke-linecap:round;stroke-linejoin:round;stroke-miterlimit:10;}
	.st54{fill:#BF8DF2;stroke:#45413C;stroke-linecap:round;stroke-linejoin:round;stroke-miterlimit:10;}
	.st55{fill:#E4FFD1;stroke:#45413C;stroke-linecap:round;stroke-linejoin:round;stroke-miterlimit:10;}
	.st56{fill:#F0FFE5;}
	.st57{fill:#C8FFA1;stroke:#45413C;stroke-linecap:round;stroke-linejoin:round;stroke-miterlimit:10;}
	.st58{fill:#6DD627;stroke:#45413C;stroke-linecap:round;stroke-linejoin:round;stroke-miterlimit:10;}
	.st59{fill:#E5FEFF;}
	.st60{fill:#FFAA54;stroke:#45413C;stroke-linecap:round;stroke-linejoin:round;stroke-miterlimit:10;}
	.st61{fill:#9CEB60;stroke:#45413C;stroke-linecap:round;stroke-linejoin:round;stroke-miterlimit:10;}
	.st62{fill:#FFF48C;}
	.st63{fill:#00B8F0;stroke:#45413C;stroke-linecap:round;stroke-linejoin:round;stroke-miterlimit:10;}
	.st64{fill:none;stroke:#4F4B45;stroke-linejoin:round;stroke-miterlimit:10;}
	.st65{fill:#FFFFFF;stroke:#4F4B45;stroke-linejoin:round;stroke-miterlimit:10;}
	.st66{fill:#FFF5E3;stroke:#4F4B45;stroke-linejoin:round;stroke-miterlimit:10;}
	.st67{fill:#F7E5C6;stroke:#4F4B45;stroke-linejoin:round;stroke-miterlimit:10;}
	.st68{fill:#6DD627;}
	.st69{fill:#EBCB00;}
	.st70{fill:#46B000;}
	.st71{fill:none;stroke:#E0E0E0;stroke-linecap:round;stroke-linejoin:round;stroke-miterlimit:10;}
	.st72{fill:#9CEB60;}
	.st73{fill:#FFCC99;}
	.st74{fill:#BF8DF2;}
	.st75{fill:#9F5AE5;}
	.st76{fill:#DABFF5;}
	.st77{fill:#F0F0F0;stroke:#45413C;stroke-linecap:round;stroke-linejoin:round;stroke-miterlimit:10;}
	.st78{fill:#E5F8FF;}
	.st79{fill:#B8ECFF;}
	.st80{fill:#D9FDFF;}
	.st81{fill:#C0DCEB;stroke:#45413C;stroke-linecap:round;stroke-linejoin:round;stroke-miterlimit:10;}
	.st82{fill:#46B000;stroke:#45413C;stroke-linecap:round;stroke-linejoin:round;stroke-miterlimit:10;}
	.st83{fill:none;stroke:#FFFFFF;stroke-miterlimit:10;}
	.st84{fill:none;stroke:#FFFFFF;stroke-linecap:round;stroke-linejoin:round;stroke-miterlimit:10;}
	.st85{fill:#FFE500;stroke:#45413C;stroke-linecap:round;stroke-linejoin:round;stroke-miterlimit:10;}
	.st86{fill:#80DDFF;stroke:#45413C;stroke-linecap:round;stroke-linejoin:round;stroke-miterlimit:10;}
	.st87{fill:#FFFFFF;stroke:#45413C;stroke-linejoin:round;stroke-miterlimit:10;}
	.st88{fill:#009FD9;stroke:#45413C;stroke-linecap:round;stroke-linejoin:round;stroke-miterlimit:10;}
	.st89{fill:#E04122;stroke:#45413C;stroke-linecap:round;stroke-linejoin:round;stroke-miterlimit:10;}
	.st90{fill:#009FD9;}
	.st91{fill:#FFFFFF;stroke:#45413C;stroke-miterlimit:10;}
	.st92{fill:#009FD9;stroke:#45413C;stroke-miterlimit:10;}
	.st93{fill:#FF8A14;stroke:#45413C;stroke-linecap:round;stroke-linejoin:round;stroke-miterlimit:10;}
	.st94{fill:none;stroke:#009FD9;stroke-linecap:round;stroke-linejoin:round;stroke-miterlimit:10;}
	.st95{fill:#525252;stroke:#45413C;stroke-linecap:round;stroke-linejoin:round;stroke-miterlimit:10;}
	.st96{fill:none;stroke:#46B000;stroke-linecap:round;stroke-linejoin:round;stroke-miterlimit:10;}
	.st97{fill:none;stroke:#E04122;stroke-linecap:round;stroke-linejoin:round;stroke-miterlimit:10;}
	.st98{fill:#6DD627;stroke:#45413C;stroke-miterlimit:10;}
	.st99{fill:none;stroke:#45413C;stroke-linejoin:round;stroke-miterlimit:10;}
	.st100{fill:#46B000;stroke:#45413C;stroke-miterlimit:10;}
	.st101{fill:#00DFEB;}
	.st102{fill:#00AD85;}
	.st103{fill:#E04122;stroke:#45413C;stroke-miterlimit:10;}
</style>
<g>
	<path id="XMLID_17496_" class="st14" d="M40.8,42.1H7.2c-0.7,0-1.3-0.6-1.3-1.3V7.2c0-0.7,0.6-1.3,1.3-1.3h33.6
		c0.7,0,1.3,0.6,1.3,1.3v33.6C42.1,41.5,41.5,42.1,40.8,42.1z"/>
	<path id="XMLID_17495_" class="st15" d="M40.8,5.9H7.2c-0.7,0-1.3,0.6-1.3,1.3v3.2c0-0.7,0.6-1.3,1.3-1.3h33.6
		c0.7,0,1.3,0.6,1.3,1.3V7.2C42.1,6.5,41.5,5.9,40.8,5.9z"/>
	<ellipse id="XMLID_17494_" class="st0" cx="24" cy="45.2" rx="13.4" ry="1.7"/>
	<rect id="XMLID_17493_" x="5.9" y="13.2" class="st71" width="36.1" height="21.6"/>
	<rect id="XMLID_17492_" x="5.9" y="20.1" class="st71" width="36.1" height="7.8"/>
	
		<rect id="XMLID_17491_" x="5.9" y="20.3" transform="matrix(-1.836970e-16 1 -1 -1.836970e-16 47.9999 5.827691e-05)" class="st71" width="36.1" height="7.5"/>
	
		<rect id="XMLID_17490_" x="5.9" y="13.2" transform="matrix(-1.836970e-16 1 -1 -1.836970e-16 47.9999 5.827691e-05)" class="st71" width="36.1" height="21.6"/>
	<path id="XMLID_17489_" class="st7" d="M27.4,42.1h-6.8V27.9c0-0.7,0.6-1.3,1.3-1.3h4.2c0.7,0,1.3,0.6,1.3,1.3V42.1z"/>
	<path class="st8" d="M26.1,26.6h-4.2c-0.7,0-1.3,0.6-1.3,1.3v2.4c0-0.7,0.6-1.3,1.3-1.3h4.2c0.7,0,1.3,0.6,1.3,1.3v-2.4
		C27.4,27.2,26.8,26.6,26.1,26.6z"/>
	<path id="XMLID_17487_" class="st3" d="M27.4,42.1h-6.8V27.9c0-0.7,0.6-1.3,1.3-1.3h4.2c0.7,0,1.3,0.6,1.3,1.3V42.1z"/>
	<path id="XMLID_17486_" class="st68" d="M16.6,42.1H9.8V23.2c0-0.7,0.6-1.3,1.3-1.3h4.2c0.7,0,1.3,0.6,1.3,1.3V42.1z"/>
	<path class="st72" d="M15.3,22h-4.2c-0.7,0-1.3,0.6-1.3,1.3v2.4c0-0.7,0.6-1.3,1.3-1.3h4.2c0.7,0,1.3,0.6,1.3,1.3v-2.4
		C16.6,22.5,16,22,15.3,22z"/>
	<path id="XMLID_17484_" class="st3" d="M16.6,42.1H9.8V23.2c0-0.7,0.6-1.3,1.3-1.3h4.2c0.7,0,1.3,0.6,1.3,1.3V42.1z"/>
	<path id="XMLID_17483_" class="st16" d="M38.2,42.1h-6.8V15.2c0-0.7,0.6-1.3,1.3-1.3h4.2c0.7,0,1.3,0.6,1.3,1.3V42.1z"/>
	<path class="st17" d="M36.9,13.9h-4.2c-0.7,0-1.3,0.6-1.3,1.3v2.4c0-0.7,0.6-1.3,1.3-1.3h4.2c0.7,0,1.3,0.6,1.3,1.3v-2.4
		C38.2,14.5,37.7,13.9,36.9,13.9z"/>
	<path id="XMLID_17481_" class="st3" d="M38.2,42.1h-6.8V15.2c0-0.7,0.6-1.3,1.3-1.3h4.2c0.7,0,1.3,0.6,1.3,1.3V42.1z"/>
	<path id="XMLID_17480_" class="st3" d="M40.8,42.1H7.2c-0.7,0-1.3-0.6-1.3-1.3V7.2c0-0.7,0.6-1.3,1.3-1.3h33.6
		c0.7,0,1.3,0.6,1.3,1.3v33.6C42.1,41.5,41.5,42.1,40.8,42.1z"/>
</g>
</svg>
