<?xml version="1.0" standalone="no"?><!DOCTYPE svg PUBLIC "-//W3C//DTD SVG 1.1//EN" "http://www.w3.org/Graphics/SVG/1.1/DTD/svg11.dtd"><svg xmlns:xlink="http://www.w3.org/1999/xlink" version="1.1" style="font-family:'lucida grande', 'lucida sans unicode', arial, helvetica, sans-serif;font-size:12px;" xmlns="http://www.w3.org/2000/svg" width="600" height="400"><desc>Created with Highcharts 4.2.7</desc><defs><clipPath id="highcharts-10"><rect x="1" y="1" width="578" height="306"></rect></clipPath></defs><rect x="10" y="36" width="580" height="308" fill="#ffffff"></rect><rect x="10" y="36" width="580" height="308" stroke="#026FC1" stroke-width="2" fill="none"></rect><g class="highcharts-series-group"><g class="highcharts-series highcharts-series-0" transform="translate(10,36) scale(1 1)"><path fill="#50B432" d="M 289.9738279933252 41.500002665268255 A 128.5 128.5 0 1 1 161.53885635231538 173.1598374529294 L 290 170 A 0 0 0 1 0 290 170 Z" stroke="#FFFFFF" stroke-width="1" stroke-linejoin="round" transform="translate(0,0)"></path><path fill="#ED561B" d="M 161.53576074595557 173.03137475077332 A 128.5 128.5 0 0 1 187.1927713721525 92.90963911187411 L 290 170 A 0 0 0 0 0 290 170 Z" stroke="#FFFFFF" stroke-width="1" stroke-linejoin="round" transform="translate(0,0)"></path><path fill="#DDDF00" d="M 187.26991312380224 92.80687044555805 A 128.5 128.5 0 0 1 225.10672195509335 59.089619671617584 L 290 170 A 0 0 0 0 0 290 170 Z" stroke="#FFFFFF" stroke-width="1" stroke-linejoin="round" transform="translate(0,0)"></path><path fill="#24CBE5" d="M 225.21766476357303 59.02478185957375 A 128.5 128.5 0 0 1 243.9653338329274 50.02892219002874 L 290 170 A 0 0 0 0 0 290 170 Z" stroke="#FFFFFF" stroke-width="1" stroke-linejoin="round" transform="translate(0,0)"></path><path fill="#64E572" d="M 244.0853279080734 49.982947517067984 A 128.5 128.5 0 0 1 262.536024370621 44.46920679518958 L 290 170 A 0 0 0 0 0 290 170 Z" stroke="#FFFFFF" stroke-width="1" stroke-linejoin="round" transform="translate(0,0)"></path><path fill="#FF9655" d="M 262.66156887489075 44.44180558952888 A 128.5 128.5 0 0 1 279.2969304529921 41.94651780497372 L 290 170 A 0 0 0 0 0 290 170 Z" stroke="#FFFFFF" stroke-width="1" stroke-linejoin="round" transform="translate(0,0)"></path><path fill="#FFF263" d="M 279.4249892653793 41.935878763946306 A 128.5 128.5 0 0 1 289.8215160779578 41.500123955353274 L 290 170 A 0 0 0 0 0 290 170 Z" stroke="#FFFFFF" stroke-width="1" stroke-linejoin="round" transform="translate(0,0)"></path></g><g class="highcharts-markers highcharts-series-0" transform="translate(10,36) scale(1 1)"></g></g><text x="300" text-anchor="middle" class="highcharts-title" style="color:#000000;font-size:10px;font-family:'arial', sans-serif;fill:#000000;width:536px;" y="17"><tspan>What to do with errors?</tspan></text><g class="highcharts-data-labels highcharts-series-0" transform="translate(10,36) scale(1 1)" opacity="1"><path fill="none" d="M 408.3979619693236 280.23911784551944 C 403.3979619693236 280.23911784551944 397.67440552923154 274.64976173975185 389.804515424105 266.9643970943215 L 381.9346253189784 259.27903244889114" stroke="#50B432" stroke-width="1"></path><path fill="none" d="M 134.07497965087728 121.08628053312893 C 139.07497965087728 121.08628053312893 146.6926462931043 123.52987520653568 157.16693792616644 126.88981788246994 L 167.64122955922858 130.2497605584042" stroke="#ED561B" stroke-width="1"></path><path fill="none" d="M 145.10003573981874 95 C 150.10003573981874 95 189.92441131187587 57.09392121097102 197.23890616615736 65.30964789987014 L 204.55340102043886 73.52537458876927" stroke="#DDDF00" stroke-width="1"></path><path fill="none" d="M 158.5009881461519 74 C 163.5009881461519 74 224.93102333726733 33.793411080873625 229.68689538570626 43.71216508825163 L 234.4427674341452 53.630919095629636" stroke="#24CBE5" stroke-width="1"></path><path fill="none" d="M 177.52907369897662 53 C 182.52907369897662 53 246.9893699055496 25.27678515967564 250.1330039988317 35.81801680913456 L 253.27663809211379 46.359248458593484" stroke="#64E572" stroke-width="1"></path><path fill="none" d="M 206.1583866222919 32 C 211.1583866222919 32 267.80621108505034 20.64542085109153 269.42834848082737 31.52515753307155 L 271.0504858766044 42.40489421505157" stroke="#FF9655" stroke-width="1"></path><path fill="none" d="M 278.50736086104337 11 C 283.50736086104337 11 283.8350650447127 19.126320198656174 284.2856582972586 30.117087493106553 L 284.7362515498045 41.10785478755693" stroke="#FFF263" stroke-width="1"></path><g style="cursor:pointer;" transform="translate(413,270)"><text x="5" style="font-size:10px;font-weight:bold;font-family:'arial', sans-serif;color:#000;text-shadow:none;fill:#000;text-rendering:geometricprecision;" y="15"><tspan>correct: 74.6%</tspan></text></g><g style="cursor:pointer;" transform="translate(41,111)"><text x="5" style="font-size:10px;font-weight:bold;font-family:'arial', sans-serif;color:#000;text-shadow:none;fill:#000;text-rendering:geometricprecision;" y="15"><tspan>eliminate: 10.6%</tspan></text></g><g style="cursor:pointer;" transform="translate(88,85)"><text x="5" style="font-size:10px;font-weight:bold;font-family:'arial', sans-serif;color:#000;text-shadow:none;fill:#000;text-rendering:geometricprecision;" y="15"><tspan>fix: 6.3%</tspan></text></g><g style="cursor:pointer;" transform="translate(79,64)"><text x="5" style="font-size:10px;font-weight:bold;font-family:'arial', sans-serif;color:#000;text-shadow:none;fill:#000;text-rendering:geometricprecision;" y="15"><tspan>remove: 2.6%</tspan></text></g><g style="cursor:pointer;" transform="translate(104,43)"><text x="5" style="font-size:10px;font-weight:bold;font-family:'arial', sans-serif;color:#000;text-shadow:none;fill:#000;text-rendering:geometricprecision;" y="15"><tspan>rectify: 2.4%</tspan></text></g><g style="cursor:pointer;" transform="translate(134,22)"><text x="5" style="font-size:10px;font-weight:bold;font-family:'arial', sans-serif;color:#000;text-shadow:none;fill:#000;text-rendering:geometricprecision;" y="15"><tspan>repair: 2.1%</tspan></text></g><g style="cursor:pointer;" transform="translate(199,1)"><text x="5" style="font-size:10px;font-weight:bold;font-family:'arial', sans-serif;color:#000;text-shadow:none;fill:#000;text-rendering:geometricprecision;" y="15"><tspan>resolve: 1.3%</tspan></text></g></g><g class="highcharts-legend" transform="translate(25,356)"><g><g><g class="highcharts-legend-item" transform="translate(8,3)"><text x="21" style="color:#333;font-size:9pt;font-weight:normal;cursor:pointer;font-family:'lucida grande','lucida sans unicode',arial,helvetica,sans-serif;text-transform:none;fill:#333;" text-anchor="start" y="15">correct</text><rect x="0" y="4" width="16" height="12" fill="#50B432"></rect></g><g class="highcharts-legend-item" transform="translate(90.169921875,3)"><text x="21" y="15" style="color:#333;font-size:9pt;font-weight:normal;cursor:pointer;font-family:'lucida grande','lucida sans unicode',arial,helvetica,sans-serif;text-transform:none;fill:#333;" text-anchor="start">eliminate</text><rect x="0" y="4" width="16" height="12" fill="#ED561B"></rect></g><g class="highcharts-legend-item" transform="translate(185.02734375,3)"><text x="21" y="15" style="color:#333;font-size:9pt;font-weight:normal;cursor:pointer;font-family:'lucida grande','lucida sans unicode',arial,helvetica,sans-serif;text-transform:none;fill:#333;" text-anchor="start">fix</text><rect x="0" y="4" width="16" height="12" fill="#DDDF00"></rect></g><g class="highcharts-legend-item" transform="translate(241.908203125,3)"><text x="21" y="15" style="color:#333;font-size:9pt;font-weight:normal;cursor:pointer;font-family:'lucida grande','lucida sans unicode',arial,helvetica,sans-serif;text-transform:none;fill:#333;" text-anchor="start">remove</text><rect x="0" y="4" width="16" height="12" fill="#24CBE5"></rect></g><g class="highcharts-legend-item" transform="translate(326.2890625,3)"><text x="21" y="15" style="color:#333;font-size:9pt;font-weight:normal;cursor:pointer;font-family:'lucida grande','lucida sans unicode',arial,helvetica,sans-serif;text-transform:none;fill:#333;" text-anchor="start">rectify</text><rect x="0" y="4" width="16" height="12" fill="#64E572"></rect></g><g class="highcharts-legend-item" transform="translate(404.400390625,3)"><text x="21" y="15" style="color:#333;font-size:9pt;font-weight:normal;cursor:pointer;font-family:'lucida grande','lucida sans unicode',arial,helvetica,sans-serif;text-transform:none;fill:#333;" text-anchor="start">repair</text><rect x="0" y="4" width="16" height="12" fill="#FF9655"></rect></g><g class="highcharts-legend-item" transform="translate(479.64453125,3)"><text x="21" y="15" style="color:#333;font-size:9pt;font-weight:normal;cursor:pointer;font-family:'lucida grande','lucida sans unicode',arial,helvetica,sans-serif;text-transform:none;fill:#333;" text-anchor="start">resolve</text><rect x="0" y="4" width="16" height="12" fill="#FFF263"></rect></g></g></g></g><g class="highcharts-tooltip" display="none" style="cursor:default;padding:0;pointer-events:none;white-space:nowrap;" transform="translate(0,0)"><path fill="none" d="M 3.5 0.5 L 13.5 0.5 C 16.5 0.5 16.5 0.5 16.5 3.5 L 16.5 13.5 C 16.5 16.5 16.5 16.5 13.5 16.5 L 3.5 16.5 C 0.5 16.5 0.5 16.5 0.5 13.5 L 0.5 3.5 C 0.5 0.5 0.5 0.5 3.5 0.5"  stroke="black" stroke-opacity="0.049999999999999996" stroke-width="5" transform="translate(1, 1)"></path><path fill="none" d="M 3.5 0.5 L 13.5 0.5 C 16.5 0.5 16.5 0.5 16.5 3.5 L 16.5 13.5 C 16.5 16.5 16.5 16.5 13.5 16.5 L 3.5 16.5 C 0.5 16.5 0.5 16.5 0.5 13.5 L 0.5 3.5 C 0.5 0.5 0.5 0.5 3.5 0.5"  stroke="black" stroke-opacity="0.09999999999999999" stroke-width="3" transform="translate(1, 1)"></path><path fill="none" d="M 3.5 0.5 L 13.5 0.5 C 16.5 0.5 16.5 0.5 16.5 3.5 L 16.5 13.5 C 16.5 16.5 16.5 16.5 13.5 16.5 L 3.5 16.5 C 0.5 16.5 0.5 16.5 0.5 13.5 L 0.5 3.5 C 0.5 0.5 0.5 0.5 3.5 0.5"  stroke="black" stroke-opacity="0.15" stroke-width="1" transform="translate(1, 1)"></path><path fill="rgb(249, 249, 249)" fill-opacity=" .85" d="M 3.5 0.5 L 13.5 0.5 C 16.5 0.5 16.5 0.5 16.5 3.5 L 16.5 13.5 C 16.5 16.5 16.5 16.5 13.5 16.5 L 3.5 16.5 C 0.5 16.5 0.5 16.5 0.5 13.5 L 0.5 3.5 C 0.5 0.5 0.5 0.5 3.5 0.5"></path><text x="8" style="font-size:12px;color:#000000;fill:#000000;" y="20"></text></g><text x="590" text-anchor="end" style="cursor:pointer;color:#909090;font-size:9px;fill:#909090;" y="395">meta-chart.com</text></svg>
