<svg xmlns:xlink="http://www.w3.org/1999/xlink" version="1.1" style="font-family:'lucida grande', 'lucida sans unicode', arial, helvetica, sans-serif;font-size:12px;" xmlns="http://www.w3.org/2000/svg" width="600" height="400"><desc>Created with Highcharts 4.2.7</desc><defs><clipPath id="highcharts-5"><rect x="1" y="1" width="578" height="282"></rect></clipPath></defs><rect x="10" y="60" width="580" height="284" fill="#ffffff"></rect><rect x="10" y="60" width="580" height="284" stroke="#026FC1" stroke-width="2" fill="none"></rect><g class="highcharts-series-group"><g class="highcharts-series highcharts-series-0" transform="translate(10,60) scale(1 1)"><path fill="#50B432" d="M 300.9781051306028 40.50000222969912 A 107.5 107.5 0 1 1 205.13658519898917 196.64623009740154 L 301 148 A 0 0 0 1 0 301 148 Z" stroke="#FFFFFF" stroke-width="1" stroke-linejoin="round" transform="translate(0,0)"></path><path fill="#ED561B" d="M 205.08798690870287 196.55034237546474 A 107.5 107.5 0 0 1 257.4221904349927 49.72882155221728 L 301 148 A 0 0 0 0 0 301 148 Z" stroke="#FFFFFF" stroke-width="1" stroke-linejoin="round" transform="translate(0,0)"></path><path fill="#DDDF00" d="M 257.5204833859649 49.685292885500346 A 107.5 107.5 0 0 1 300.8506846566573 40.50010369805818 L 301 148 A 0 0 0 0 0 301 148 Z" stroke="#FFFFFF" stroke-width="1" stroke-linejoin="round" transform="translate(0,0)"></path></g><g class="highcharts-markers highcharts-series-0" transform="translate(10,60) scale(1 1)"></g></g><text x="300" text-anchor="middle" class="highcharts-title" style="color:#000000;font-size:10px;font-family:'arial', sans-serif;fill:#000000;width:536px;" y="17"><tspan>ngrams, 2019</tspan></text><text x="300" text-anchor="middle" class="highcharts-subtitle" style="color:#000000;font-size:10px;font-family:'arial', sans-serif;fill:#000000;width:536px;" y="33"><tspan>https://books.google.com/ngrams/graph?content=for+a+custom+installation%2Cfor+custom+installation%2Cfor+the+custom+installation&amp;year_start=1800&amp;year_end=2019&amp;corpus=en-</tspan><tspan dy="13" x="300">2019&amp;smoothing=3</tspan><title>https://books.google.com/ngrams/graph?content=for+a+custom+installation%2Cfor+custom+installation%2Cfor+the+custom+installation&amp;year_start=1800&amp;year_end=2019&amp;corpus=en-2019&amp;smoothing=3</title></text><g class="highcharts-data-labels highcharts-series-0" transform="translate(10,60) scale(1 1)" opacity="1"><path fill="none" d="M 422.6257756898793 219.52640258297015 C 417.6257756898793 219.52640258297015 410.8111851042862 215.33577552359736 401.4411230490959 209.57366331695974 L 392.0710609939056 203.8115511103221" stroke="#50B432" stroke-width="1"></path><path fill="none" d="M 166.0226393135375 101.21973347453917 C 171.0226393135375 101.21973347453917 178.55586757165895 103.91240352692961 188.91405642657594 107.61482484896648 L 199.27224528149293 111.31724617100335" stroke="#ED561B" stroke-width="1"></path><path fill="none" d="M 267.09871716178435 12.965182450253128 C 272.09871716178435 12.965182450253128 273.75115543600793 20.792662744056585 276.02325806306516 31.555448148036334 L 278.2953606901224 42.31823355201608" stroke="#DDDF00" stroke-width="1"></path><g style="cursor:pointer;" transform="translate(428,210)"><text x="5" style="font-size:10px;font-weight:bold;font-family:'arial', sans-serif;color:#000;text-shadow:none;fill:#000;text-rendering:geometricprecision;" y="15"><tspan>for custom installation: 67.5%</tspan></text></g><g style="cursor:pointer;" transform="translate(0,91)"><text x="5" style="font-size:10px;font-weight:bold;font-family:'arial', sans-serif;color:#000;text-shadow:none;fill:#000;text-rendering:geometricprecision;" y="15"><tspan>for a custom installation: 25.8%</tspan></text></g><g style="cursor:pointer;" transform="translate(97,3)"><text x="5" style="font-size:10px;font-weight:bold;font-family:'arial', sans-serif;color:#000;text-shadow:none;fill:#000;text-rendering:geometricprecision;" y="15"><tspan>for the custom installation: 6.6%</tspan></text></g></g><g class="highcharts-legend" transform="translate(27,356)"><g><g><g class="highcharts-legend-item" transform="translate(8,3)"><text x="21" style="color:#333;font-size:9pt;font-weight:normal;cursor:pointer;font-family:'lucida grande','lucida sans unicode',arial,helvetica,sans-serif;text-transform:none;fill:#333;" text-anchor="start" y="15"><tspan>for custom installation</tspan></text><rect x="0" y="4" width="16" height="12" fill="#50B432"></rect></g><g class="highcharts-legend-item" transform="translate(180.5625,3)"><text x="21" y="15" style="color:#333;font-size:9pt;font-weight:normal;cursor:pointer;font-family:'lucida grande','lucida sans unicode',arial,helvetica,sans-serif;text-transform:none;fill:#333;" text-anchor="start"><tspan>for a custom installation</tspan></text><rect x="0" y="4" width="16" height="12" fill="#ED561B"></rect></g><g class="highcharts-legend-item" transform="translate(363.546875,3)"><text x="21" y="15" style="color:#333;font-size:9pt;font-weight:normal;cursor:pointer;font-family:'lucida grande','lucida sans unicode',arial,helvetica,sans-serif;text-transform:none;fill:#333;" text-anchor="start"><tspan>for the custom installation</tspan></text><rect x="0" y="4" width="16" height="12" fill="#DDDF00"></rect></g></g></g></g><g class="highcharts-tooltip" display="none" style="cursor:default;padding:0;pointer-events:none;white-space:nowrap;" transform="translate(0,0)"><path fill="none" d="M 3.5 0.5 L 13.5 0.5 C 16.5 0.5 16.5 0.5 16.5 3.5 L 16.5 13.5 C 16.5 16.5 16.5 16.5 13.5 16.5 L 3.5 16.5 C 0.5 16.5 0.5 16.5 0.5 13.5 L 0.5 3.5 C 0.5 0.5 0.5 0.5 3.5 0.5"  stroke="black" stroke-opacity="0.049999999999999996" stroke-width="5" transform="translate(1, 1)"></path><path fill="none" d="M 3.5 0.5 L 13.5 0.5 C 16.5 0.5 16.5 0.5 16.5 3.5 L 16.5 13.5 C 16.5 16.5 16.5 16.5 13.5 16.5 L 3.5 16.5 C 0.5 16.5 0.5 16.5 0.5 13.5 L 0.5 3.5 C 0.5 0.5 0.5 0.5 3.5 0.5"  stroke="black" stroke-opacity="0.09999999999999999" stroke-width="3" transform="translate(1, 1)"></path><path fill="none" d="M 3.5 0.5 L 13.5 0.5 C 16.5 0.5 16.5 0.5 16.5 3.5 L 16.5 13.5 C 16.5 16.5 16.5 16.5 13.5 16.5 L 3.5 16.5 C 0.5 16.5 0.5 16.5 0.5 13.5 L 0.5 3.5 C 0.5 0.5 0.5 0.5 3.5 0.5"  stroke="black" stroke-opacity="0.15" stroke-width="1" transform="translate(1, 1)"></path><path fill="rgb(249, 249, 249)" fill-opacity=" .85" d="M 3.5 0.5 L 13.5 0.5 C 16.5 0.5 16.5 0.5 16.5 3.5 L 16.5 13.5 C 16.5 16.5 16.5 16.5 13.5 16.5 L 3.5 16.5 C 0.5 16.5 0.5 16.5 0.5 13.5 L 0.5 3.5 C 0.5 0.5 0.5 0.5 3.5 0.5"></path><text x="8" style="font-size:12px;color:#000000;fill:#000000;" y="20"></text></g><text x="590" text-anchor="end" style="cursor:pointer;color:#909090;font-size:9px;fill:#909090;" y="395">meta-chart.com</text></svg>