<?xml version="1.0" encoding="UTF-8"?>
<!DOCTYPE svg PUBLIC "-//W3C//DTD SVG 1.1//EN" "http://www.w3.org/Graphics/SVG/1.1/DTD/svg11.dtd">
<svg width="160mm" height="90mm" viewBox="0 0 16000 9000" version="1.1" xmlns="http://www.w3.org/2000/svg" stroke-width="28.222" stroke-linejoin="round" xml:space="preserve">
 <path fill="rgb(255,255,255)" stroke="none" d="M 8000,8999 L 0,8999 0,0 15999,0 15999,8999 8000,8999 Z"/>
 <path fill="none" stroke="rgb(179,179,179)" stroke-linejoin="round" d="M 8495,8172 L 1312,8172 1312,379 15679,379 15679,8172 8495,8172 Z"/>
 <path fill="none" stroke="rgb(179,179,179)" stroke-linejoin="round" d="M 1312,378 L 1312,8171"/>
 <path fill="none" stroke="rgb(179,179,179)" stroke-linejoin="round" d="M 3770,378 L 3770,8171"/>
 <path fill="none" stroke="rgb(179,179,179)" stroke-linejoin="round" d="M 6229,378 L 6229,8171"/>
 <path fill="none" stroke="rgb(179,179,179)" stroke-linejoin="round" d="M 8693,378 L 8693,8171"/>
 <path fill="none" stroke="rgb(179,179,179)" stroke-linejoin="round" d="M 11152,378 L 11152,8171"/>
 <path fill="none" stroke="rgb(179,179,179)" stroke-linejoin="round" d="M 13611,378 L 13611,8171"/>
 <path fill="none" stroke="rgb(179,179,179)" stroke-linejoin="round" d="M 15679,8171 L 1312,8171"/>
 <path fill="none" stroke="rgb(179,179,179)" stroke-linejoin="round" d="M 15679,6872 L 1312,6872"/>
 <path fill="none" stroke="rgb(179,179,179)" stroke-linejoin="round" d="M 15679,5573 L 1312,5573"/>
 <path fill="none" stroke="rgb(179,179,179)" stroke-linejoin="round" d="M 15679,4275 L 1312,4275"/>
 <path fill="none" stroke="rgb(179,179,179)" stroke-linejoin="round" d="M 15679,2976 L 1312,2976"/>
 <path fill="none" stroke="rgb(179,179,179)" stroke-linejoin="round" d="M 15679,1677 L 1312,1677"/>
 <path fill="none" stroke="rgb(179,179,179)" stroke-linejoin="round" d="M 15679,378 L 1312,378"/>
 <path fill="none" stroke="rgb(179,179,179)" stroke-linejoin="round" d="M 1312,8321 L 1312,8171"/>
 <path fill="none" stroke="rgb(179,179,179)" stroke-linejoin="round" d="M 1312,8321 L 1312,8171"/>
 <path fill="none" stroke="rgb(179,179,179)" stroke-linejoin="round" d="M 3770,8321 L 3770,8171"/>
 <path fill="none" stroke="rgb(179,179,179)" stroke-linejoin="round" d="M 3770,8321 L 3770,8171"/>
 <path fill="none" stroke="rgb(179,179,179)" stroke-linejoin="round" d="M 6229,8321 L 6229,8171"/>
 <path fill="none" stroke="rgb(179,179,179)" stroke-linejoin="round" d="M 6229,8321 L 6229,8171"/>
 <path fill="none" stroke="rgb(179,179,179)" stroke-linejoin="round" d="M 8693,8321 L 8693,8171"/>
 <path fill="none" stroke="rgb(179,179,179)" stroke-linejoin="round" d="M 8693,8321 L 8693,8171"/>
 <path fill="none" stroke="rgb(179,179,179)" stroke-linejoin="round" d="M 11152,8321 L 11152,8171"/>
 <path fill="none" stroke="rgb(179,179,179)" stroke-linejoin="round" d="M 11152,8321 L 11152,8171"/>
 <path fill="none" stroke="rgb(179,179,179)" stroke-linejoin="round" d="M 13611,8321 L 13611,8171"/>
 <path fill="none" stroke="rgb(179,179,179)" stroke-linejoin="round" d="M 13611,8321 L 13611,8171"/>
 <path fill="none" stroke="rgb(179,179,179)" stroke-linejoin="round" d="M 1312,8171 L 15679,8171"/>
 <path fill="none" stroke="rgb(179,179,179)" stroke-linejoin="round" d="M 1162,8171 L 1312,8171"/>
 <path fill="none" stroke="rgb(179,179,179)" stroke-linejoin="round" d="M 1162,8171 L 1312,8171"/>
 <path fill="none" stroke="rgb(179,179,179)" stroke-linejoin="round" d="M 1162,6872 L 1312,6872"/>
 <path fill="none" stroke="rgb(179,179,179)" stroke-linejoin="round" d="M 1162,6872 L 1312,6872"/>
 <path fill="none" stroke="rgb(179,179,179)" stroke-linejoin="round" d="M 1162,5573 L 1312,5573"/>
 <path fill="none" stroke="rgb(179,179,179)" stroke-linejoin="round" d="M 1162,5573 L 1312,5573"/>
 <path fill="none" stroke="rgb(179,179,179)" stroke-linejoin="round" d="M 1162,4275 L 1312,4275"/>
 <path fill="none" stroke="rgb(179,179,179)" stroke-linejoin="round" d="M 1162,4275 L 1312,4275"/>
 <path fill="none" stroke="rgb(179,179,179)" stroke-linejoin="round" d="M 1162,2976 L 1312,2976"/>
 <path fill="none" stroke="rgb(179,179,179)" stroke-linejoin="round" d="M 1162,2976 L 1312,2976"/>
 <path fill="none" stroke="rgb(179,179,179)" stroke-linejoin="round" d="M 1162,1677 L 1312,1677"/>
 <path fill="none" stroke="rgb(179,179,179)" stroke-linejoin="round" d="M 1162,1677 L 1312,1677"/>
 <path fill="none" stroke="rgb(179,179,179)" stroke-linejoin="round" d="M 1162,378 L 1312,378"/>
 <path fill="none" stroke="rgb(179,179,179)" stroke-linejoin="round" d="M 1162,378 L 1312,378"/>
 <path fill="none" stroke="rgb(179,179,179)" stroke-linejoin="round" d="M 1312,8171 L 1312,378"/>
 <path fill="none" stroke="rgb(0,69,134)" stroke-width="80" stroke-linejoin="round" d="M 1436,8169 L 1443,8169 1456,8168 1470,8167 1483,8166 1497,8166 1510,8165 1524,8165 1537,8165 1551,8164 1564,8163 1578,8163 1591,8163 1605,8163 1618,8163 1631,8165 1645,8164 1658,8165 1672,8166 1692,8165 1706,8165 1719,8165 1733,8165 1746,8165 1759,8165 1773,8165 1786,8165 1800,8166 1813,8166 1827,8166 1840,8165 1854,8164 1867,8164 1881,8163 1894,8162 1908,8160 1921,8159 1935,8159 1948,8158 1955,8157 1962,8156 1975,8155 1988,8155 2002,8154 2015,8152 2029,8152 2042,8149 2063,8149 2076,8149 2090,8150 2103,8149 2116,8149 2130,8149 2143,8148 2157,8147 2170,8147 2184,8147 2197,8146 2211,8146 2224,8146 2238,8146 2251,8145 2265,8144 2278,8144 2292,8143 2305,8143 2319,8143 2332,8142 2345,8143 2359,8142 2372,8142 2386,8143 2399,8143 2413,8144 2433,8142 2447,8140 2460,8141 2473,8140 2487,8139 2500,8140 2514,8138 2527,8137 2541,8135 2554,8133 2568,8131 2581,8121 2588,8111 2595,8099 2608,8090 2622,8080 2628,8076 2635,8075 2649,8067 2655,8064 2662,8057 2669,8049 2676,8039 2682,8033 2689,8025 2696,8023 2702,8022 2709,8073 2716,8072 2729,8062 2736,8051 2743,8049 2756,8051 2763,8048 2770,8048 2783,8049 2804,8052 2817,8052 2824,8070 2830,8068 2844,8066 2857,8065 2864,8064 2871,8064 2878,8065 2884,8063 2898,8062 2911,8060 2925,8061 2938,8051 2952,8050 2965,8046 2979,8044 2992,8039 2999,8030 3006,8030 3019,8025 3026,8025 3033,8024 3046,8025 3060,8026 3073,8031 3086,8032 3100,8031 3113,8030 3127,8030 3140,8028 3154,8028 3174,8028 3187,8028 3201,8028 3214,8028 3228,8027 3241,8026 3255,8026 3268,8027 3282,8025 3289,8024 3295,8024 3302,8025 3309,8025 3322,8026 3336,8026 3349,8028 3363,8030 3376,8031 3390,8030 3403,8031 3417,8028 3430,8028 3443,8023 3450,8010 3457,7996 3464,7982 3470,7805 3477,7739 3484,7733 3497,7724 3504,7599 3511,7595 3524,7587 3545,7582 3558,7584 3571,7582 3585,7580 3598,7579 3612,7579 3625,7575 3632,7572 3639,7568 3652,7566 3659,7560 3666,7553 3679,7547 3693,7532 3706,7527 3720,7520 3733,7515 3747,7515 3760,7515 3774,7487 3780,7479 3787,7470 3794,7464 3800,7458 3807,7449 3814,7445 3827,7439 3841,7431 3848,7428 3854,7426 3868,7544 3875,7517 3881,7521 3888,7525 3902,7463 3915,7454 3922,7439 3928,7437 3942,7429 3949,7423 3955,7420 3969,7384 3976,7366 3982,7359 3996,7351 4003,7345 4009,7343 4016,7331 4023,7324 4029,7321 4036,7315 4050,7319 4063,7309 4070,7288 4077,7277 4090,7267 4104,7257 4110,7250 4117,7247 4124,7242 4131,7237 4144,7229 4157,7223 4171,7220 4184,7213 4191,7219 4198,7182 4205,7197 4211,7177 4218,7163 4225,7157 4232,7144 4238,7139 4245,7119 4252,7086 4265,7066 4272,6815 4279,6770 4285,6767 4299,6777 4306,6785 4312,6786 4326,6800 4339,6806 4353,6811 4360,6796 4366,6794 4380,6794 4387,6788 4393,6777 4407,6772 4420,6767 4427,6765 4434,6770 4447,6766 4461,6777 4467,6779 4474,6782 4488,6788 4501,6787 4514,6789 4528,6811 4541,6804 4548,6790 4555,6795 4568,6794 4575,6840 4582,6786 4595,6787 4609,6781 4616,6761 4622,6760 4629,6742 4636,6736 4642,6743 4656,6789 4669,6821 4683,6820 4696,6821 4710,6822 4717,6841 4723,6838 4737,6832 4750,6832 4764,6828 4770,6844 4777,6853 4791,6850 4804,6847 4818,6846 4824,6932 4831,6926 4838,6918 4845,6919 4851,6934 4858,6935 4872,6938 4885,6934 4898,6932 4912,6936 4925,6936 4939,6939 4946,6937 4952,6939 4966,6942 4979,6944 4993,6945 5013,6947 5026,6944 5040,6944 5053,6935 5060,6943 5067,6942 5080,6940 5094,6939 5101,6991 5107,6986 5121,6966 5127,6978 5134,6977 5141,6989 5148,6991 5154,6993 5161,6990 5175,6989 5188,6994 5202,7084 5215,7086 5229,7083 5235,7084 5242,7084 5255,7089 5269,7087 5282,7087 5296,7083 5309,7081 5323,7083 5336,7083 5350,7077 5363,7092 5383,7086 5397,7085 5410,7086 5424,7091 5437,7090 5451,7093 5464,7087 5478,7098 5491,7105 5505,7104 5518,7103 5532,7104 5545,7100 5559,7106 5572,7105 5586,7106 5599,7118 5612,7122 5619,7126 5626,7125 5639,7125 5653,7128 5666,7123 5680,7120 5693,7119 5707,7118 5720,7121 5734,7120 5754,7117 5761,7110 5767,7111 5781,7112 5794,7108 5808,7107 5821,7109 5828,7111 5835,7114 5848,7116 5862,7117 5875,7117 5889,7117 5902,7115 5916,7111 5922,7109 5929,7111 5936,7109 5943,7109 5956,7099 5969,7101 5983,7099 5996,7100 6010,7100 6023,7099 6037,7093 6050,7077 6064,7072 6071,7070 6077,7076 6091,7070 6097,7071 6104,7069 6124,7065 6138,7066 6151,7065 6165,7064 6178,7066 6192,7065 6205,7065 6219,7062 6232,7061 6246,7061 6259,7062 6273,7063 6286,7060 6300,7058 6313,7058 6326,7061 6340,7062 6347,7054 6353,7053 6367,7040 6380,7033 6394,7030 6407,7031 6414,7026 6421,7031 6428,7037 6434,7035 6448,7037 6461,7045 6481,7054 6495,7046 6508,7053 6522,7050 6529,7039 6535,7039 6549,7020 6556,7015 6562,7015 6576,7017 6582,7018 6589,7017 6603,7013 6609,7019 6616,7019 6630,7018 6636,7017 6643,7023 6657,7025 6670,7025 6684,7027 6697,7021 6704,7016 6710,7015 6724,7004 6737,7007 6751,7008 6764,7005 6771,7003 6778,6985 6791,6981 6805,6981 6818,6979 6825,6975 6832,6975 6852,6973 6865,6967 6872,6962 6879,6975 6892,6954 6899,6948 6906,6946 6919,6945 6933,6939 6946,6932 6960,6935 6973,6931 6987,6930 7000,6929 7014,6928 7027,6920 7041,6929 7054,6934 7061,6950 7067,6970 7081,6968 7094,6970 7108,6966 7115,6963 7121,6965 7135,6973 7142,6982 7148,6992 7162,6995 7175,6996 7189,7001 7202,6994 7209,6991 7222,6976 7236,6973 7249,6961 7263,6960 7276,6962 7283,6965 7290,6968 7303,6965 7310,6963 7317,6959 7330,6951 7337,6950 7344,6950 7357,6944 7371,6944 7384,6940 7398,6938 7404,6930 7411,6928 7424,6923 7438,6920 7451,6913 7465,6907 7478,6895 7492,6895 7505,6895 7519,6895 7532,6895 7546,6895 7559,6895 7573,6895 7593,6895 7606,6895 7620,6895 7633,6895 7647,6895 7660,6895 7667,6884 7674,6884 7680,6887 7687,6897 7701,6892 7714,6890 7728,6886 7734,6882 7741,6881 7755,6866 7768,6857 7781,6858 7788,6857 7795,6855 7808,6851 7815,6841 7822,6836 7835,6832 7842,6831 7849,6827 7862,6798 7876,6793 7883,6789 7889,6790 7903,6786 7916,6782 7923,6775 7930,6776 7936,6783 7943,6782 7950,6774 7963,6770 7977,6766 7984,6753 7990,6750 8003,6733 8016,6733 8030,6733 8043,6719 8057,6709 8070,6707 8084,6705 8097,6713 8111,6713 8117,6726 8124,6736 8137,6765 8144,6774 8151,6765 8158,6771 8164,6771 8178,6775 8185,6780 8191,6786 8205,6790 8212,6799 8218,6802 8225,6806 8232,6808 8245,6809 8259,6807 8272,6805 8279,6806 8286,6808 8299,6812 8313,6824 8333,6824 8340,6817 8346,6822 8353,6817 8360,6814 8373,6809 8387,6813 8393,6803 8400,6800 8407,6807 8414,6802 8427,6794 8441,6802 8454,6791 8461,6792 8468,6789 8481,6783 8495,6783 8508,6782 8521,6781 8528,6767 8535,6768 8548,6774 8562,6767 8575,6760 8589,6781 8602,6782 8616,6780 8629,6787 8643,6787 8656,6794 8670,6796 8683,6791 8690,6791 8697,6795 8703,6795 8717,6792 8730,6791 8744,6786 8757,6787 8764,6800 8771,6801 8777,6809 8784,6810 8798,6811 8811,6818 8825,6823 8838,6821 8845,6802 8852,6795 8865,6795 8878,6790 8892,6791 8905,6785 8919,6782 8926,6778 8932,6776 8946,6763 8959,6773 8973,6772 8986,6774 9000,6765 9006,6762 9013,6757 9027,6755 9040,6753 9054,6752 9060,6752 9074,6750 9087,6741 9101,6736 9114,6724 9128,6718 9141,6704 9155,6685 9161,6694 9168,6693 9182,6687 9188,6683 9195,6680 9209,6679 9222,6675 9229,6666 9235,6658 9242,6660 9249,6651 9262,6665 9269,6659 9276,6656 9289,6647 9303,6652 9316,6642 9330,6625 9343,6614 9357,6609 9363,6598 9370,6590 9377,6598 9384,6596 9397,6597 9411,6598 9431,6604 9444,6601 9458,6603 9464,6593 9471,6590 9485,6577 9498,6570 9512,6563 9518,6549 9525,6554 9532,6538 9539,6532 9545,6523 9552,6520 9566,6506 9572,6498 9579,6479 9586,6468 9592,6454 9606,6441 9613,6433 9619,6434 9633,6435 9646,6432 9653,6420 9660,6411 9667,6406 9673,6397 9680,6392 9687,6382 9694,6377 9700,6368 9707,6351 9714,6346 9720,6338 9727,6325 9734,6314 9741,6303 9747,6291 9754,6280 9761,6265 9768,6261 9774,6263 9781,6264 9795,6243 9801,6206 9808,6192 9815,6181 9822,6162 9828,6154 9835,6114 9842,6101 9855,6088 9869,6075 9882,6046 9889,6036 9896,6039 9902,6028 9909,6023 9916,6020 9923,6017 9936,6005 9943,5986 9949,5972 9956,5941 9963,5914 9970,5872 9976,5868 9983,5846 9990,5831 9997,5817 10003,5801 10010,5774 10017,5760 10024,5744 10030,5731 10044,5705 10051,5680 10057,5644 10064,5608 10071,5595 10084,5571 10091,5546 10098,5524 10104,5500 10111,5489 10118,5451 10125,5432 10131,5400 10138,5375 10145,5365 10152,5346 10158,5327 10165,5310 10172,5296 10179,5283 10185,5268 10192,5252 10199,5225 10205,5209 10212,5201 10219,5200 10226,5190 10232,5178 10239,5171 10253,5162 10259,5161 10266,5153 10273,5145 10280,5139 10286,5107 10293,5091 10306,5085 10313,5077 10320,5076 10327,5115 10333,5115 10347,5111 10354,5103 10360,5097 10367,5085 10374,5064 10381,5037 10387,5029 10394,5006 10401,4983 10408,4963 10414,4954 10428,4927 10434,4914 10441,4695 10448,4839 10455,4821 10461,4807 10468,4791 10475,4580 10482,4557 10488,4447 10495,4413 10502,4395 10509,4385 10515,4339 10522,4330 10529,4316 10536,4306 10542,4303 10549,4278 10556,4265 10562,4259 10569,4270 10576,4276 10583,4264 10589,4255 10596,4249 10603,4243 10610,4227 10616,4203 10623,4168 10637,4156 10643,4142 10650,4141 10664,4123 10670,4113 10677,4104 10684,4095 10690,4086 10704,4068 10711,4057 10717,4024 10724,4013 10731,4056 10744,4085 10758,4068 10765,4032 10771,4024 10778,4010 10785,4003 10791,4012 10798,4013 10805,3997 10812,3988 10825,3984 10832,3982 10839,3976 10852,3948 10859,3942 10866,3933 10872,3927 10879,3919 10886,3910 10893,3908 10899,3922 10913,3912 10919,3901 10926,3892 10933,3882 10940,3876 10953,3890 10960,3895 10967,3901 10973,3904 10980,3904 10987,3901 10994,3888 11000,3892 11007,3873 11021,3884 11034,3882 11047,3886 11061,3891 11068,3886 11074,3881 11081,3870 11088,3866 11095,3854 11101,3851 11115,3850 11122,3874 11128,3883 11135,3874 11142,3882 11155,3861 11169,3860 11175,3870 11182,3870 11189,3863 11196,3863 11202,3865 11209,3847 11223,3835 11236,3831 11243,3822 11250,3822 11256,3833 11263,3860 11270,3845 11276,3831 11283,3838 11297,3813 11303,3800 11310,3805 11317,3797 11324,3788 11337,3793 11344,3797 11351,3789 11357,3763 11364,3758 11371,3753 11378,3744 11384,3731 11391,3726 11398,3710 11404,3701 11411,3691 11418,3699 11431,3697 11445,3674 11458,3677 11465,3685 11472,3677 11485,3664 11499,3660 11506,3649 11512,3668 11526,3689 11539,3671 11553,3682 11559,3678 11566,3669 11580,3650 11593,3645 11600,3633 11607,3618 11613,3601 11620,3590 11627,3580 11634,3571 11640,3567 11647,3587 11654,3572 11660,3557 11667,3546 11674,3533 11681,3520 11694,3530 11701,3534 11708,3529 11714,3536 11721,3532 11728,3535 11735,3522 11741,3491 11748,3466 11755,3448 11761,3436 11768,3414 11775,3389 11782,3382 11788,3368 11802,3361 11809,3344 11815,3334 11822,3319 11829,3318 11836,3468 11842,3465 11849,3450 11856,3450 11869,3434 11876,3415 11883,3405 11889,3390 11896,3366 11903,3389 11910,3320 11916,3412 11923,3435 11930,3458 11937,3430 11943,3407 11950,3403 11957,3398 11964,3379 11970,3366 11977,3354 11991,3350 11997,3339 12004,3324 12011,3307 12017,3280 12024,3278 12031,3248 12038,3244 12051,3246 12065,3229 12071,3217 12078,3235 12085,3205 12092,3195 12105,3169 12112,3147 12118,3117 12125,3102 12132,3085 12145,3097 12159,3103 12166,3086 12172,3088 12179,3078 12186,3053 12193,3041 12199,3035 12206,3028 12213,3008 12226,2996 12233,2982 12240,2988 12253,2972 12267,2976 12273,2962 12280,2997 12287,2988 12294,3030 12300,3053 12307,3059 12314,3054 12321,3073 12327,3085 12334,3078 12348,3054 12354,3031 12361,3014 12368,2987 12374,2969 12381,2919 12388,2893 12395,2886 12401,2881 12408,2858 12415,2818 12422,2795 12428,2758 12435,2722 12442,2700 12449,2683 12455,2662 12462,2657 12469,2638 12476,2618 12489,2635 12502,2635 12509,2625 12516,2579 12523,2560 12529,2548 12543,2539 12550,2528 12556,2514 12563,2471 12570,2453 12577,2434 12583,2430 12590,2458 12597,2466 12603,2425 12610,2402 12617,2391 12624,2371 12637,2323 12644,2285 12651,2261 12657,2242 12664,2234 12671,2219 12678,2228 12684,2253 12691,2254 12698,2244 12705,2221 12718,2231 12731,2269 12745,2244 12752,2236 12765,2229 12772,2215 12779,2188 12785,2178 12792,2173 12799,2155 12806,2149 12812,2117 12819,2088 12833,2072 12839,2060 12846,2072 12853,2042 12859,2020 12873,1997 12880,1984 12886,1968 12893,1963 12900,1955 12907,1964 12913,1955 12927,1924 12940,1918 12947,1909 12954,1889 12961,1883 12967,1849 12974,1870 12981,1850 12987,1821 12994,1796 13001,1777 13008,1766 13014,1734 13021,1721 13028,1696 13035,1754 13041,1740 13048,1709 13055,1693 13062,1671 13075,1671 13088,1672 13102,1672 13122,1672 13136,1672 13149,1672 13163,1672 13176,1672 13190,1672 13203,1672 13216,1672 13230,1672 13243,1672 13257,1672 13270,1672 13284,1672 13297,1672 13311,1672 13324,1672 13338,1672 13351,1672 13365,1672 13378,1672 13392,1672 13405,1672 13419,1672 13432,1672 13445,1672 13459,1672 13479,1672 13493,1672 13506,1672 13520,1672 13533,1672 13547,1672 13560,1672 13573,1672 13587,1672 13600,1672 13614,1672 13627,1672 13641,1672 13654,1672 13668,1672 13681,1672 13695,1282 13701,1353 13708,1346 13715,1322 13722,1295 13728,1289 13735,1277 13749,1278 13755,1265 13762,1247 13769,1261 13776,1235 13789,1217 13796,1198 13803,1228 13809,1212 13816,1204 13823,1194 13829,1171 13843,1154 13850,1131 13863,1118 13877,1099 13883,1107 13890,1128 13904,1113 13910,1092 13917,1093 13930,1148 13944,1136 13951,1117 13957,1115 13971,1106 13978,1073 13984,1053 13991,1028 13998,1041 14011,1052 14018,1037 14025,1035 14032,1084 14038,1080 14052,1073 14065,1071 14079,1095 14085,1107 14092,1095 14106,1070 14112,1060 14119,1063 14126,1051 14133,1045 14146,1044 14153,1037 14160,1025 14173,1015 14186,1010 14193,1070 14200,1063 14207,1071 14213,1086 14220,1068 14234,1072 14240,1066 14247,1059 14261,1057 14274,1042 14288,1046 14294,1057 14301,1055 14308,1046 14314,1039 14328,1027 14335,1001 14341,999 14348,1032 14355,1097 14362,1085 14368,1086 14375,1102 14382,1108 14389,1103 14395,1110 14402,1098 14409,1073 14415,1063 14422,1059 14429,1046 14436,1056 14442,1069 14449,1074 14456,1083 14463,1084 14476,1092 14483,1107 14490,1135 14503,1123 14510,1150 14517,1184 14530,1199 14537,1201 14543,1210 14557,1207 14564,1199 14570,1154 14591,1149 14604,1145 14618,1138 14631,1135 14638,1188 14645,1175 14651,1167 14658,1161 14665,1151 14671,1135 14685,1129 14692,1107 14698,1120 14705,1113 14712,1114 14719,1100 14725,1088 14739,1086 14746,1072 14752,1064 14766,1064 14779,1064 14793,1064 14806,1064 14820,1064 14833,1064 14847,1064 14860,1064 14874,1064 14887,1064 14900,1064 14914,1064 14927,1064 14941,1064 14961,1064 14975,1064 14988,1064 15002,1064 15015,1064 15028,1064 15042,1064 15055,1064 15069,1999 15082,1990 15096,1983 15103,1971 15109,1975"/>
 <path fill="none" stroke="rgb(0,69,134)" stroke-width="80" stroke-linejoin="round" d="M 15130,1971 L 15136,1971 15143,1962 15150,2038 15156,2052 15163,2066 15170,2082 15177,2061 15183,2045 15190,2032 15204,2015 15210,1987 15217,1942 15224,1930 15231,2091 15237,2065 15244,2039 15251,2025 15257,2007 15271,2000 15278,1974 15284,1940 15298,1926 15305,1975 15311,1964 15325,1952 15332,1936 15338,1920 15345,1894 15352,1878 15359,1862 15372,1843 15379,1831 15385,1804 15392,1789 15399,1821 15412,2024 15419,2209 15426,2410 15439,2386 15446,2356 15453,2360 15460,2337 15466,1866 15473,1595 15480,1286 15487,1267 15493,1257 15500,1240 15507,1308 15513,1366 15520,1390 15527,1357 15534,1314 15540,1276 15547,1244 15554,1232 15561,1193 15567,1151 15574,1137 15588,1150 15594,1191 15601,1320 15608,1315 15615,1303 15621,1313 15628,1307 15635,1283 15641,1271 15655,1246 15662,1229 15668,1232 15675,1214"/>
 <text class="TextShape"><tspan class="TextParagraph" font-family="Liberation Sans, sans-serif" font-size="353px" font-weight="400"><tspan class="TextPosition" x="944" y="8739"><tspan fill="rgb(0,0,0)" stroke="none">2018</tspan></tspan></tspan></text>
 <text class="TextShape"><tspan class="TextParagraph" font-family="Liberation Sans, sans-serif" font-size="353px" font-weight="400"><tspan class="TextPosition" x="3403" y="8739"><tspan fill="rgb(0,0,0)" stroke="none">2019</tspan></tspan></tspan></text>
 <text class="TextShape"><tspan class="TextParagraph" font-family="Liberation Sans, sans-serif" font-size="353px" font-weight="400"><tspan class="TextPosition" x="5861" y="8739"><tspan fill="rgb(0,0,0)" stroke="none">2020</tspan></tspan></tspan></text>
 <text class="TextShape"><tspan class="TextParagraph" font-family="Liberation Sans, sans-serif" font-size="353px" font-weight="400"><tspan class="TextPosition" x="8327" y="8739"><tspan fill="rgb(0,0,0)" stroke="none">2021</tspan></tspan></tspan></text>
 <text class="TextShape"><tspan class="TextParagraph" font-family="Liberation Sans, sans-serif" font-size="353px" font-weight="400"><tspan class="TextPosition" x="10785" y="8739"><tspan fill="rgb(0,0,0)" stroke="none">2022</tspan></tspan></tspan></text>
 <text class="TextShape"><tspan class="TextParagraph" font-family="Liberation Sans, sans-serif" font-size="353px" font-weight="400"><tspan class="TextPosition" x="13244" y="8739"><tspan fill="rgb(0,0,0)" stroke="none">2023</tspan></tspan></tspan></text>
 <text class="TextShape"><tspan class="TextParagraph" font-family="Liberation Sans, sans-serif" font-size="353px" font-weight="400"><tspan class="TextPosition" x="877" y="8292"><tspan fill="rgb(0,0,0)" stroke="none">0</tspan></tspan></tspan></text>
 <text class="TextShape"><tspan class="TextParagraph" font-family="Liberation Sans, sans-serif" font-size="353px" font-weight="400"><tspan class="TextPosition" x="321" y="6993"><tspan fill="rgb(0,0,0)" stroke="none">1000</tspan></tspan></tspan></text>
 <text class="TextShape"><tspan class="TextParagraph" font-family="Liberation Sans, sans-serif" font-size="353px" font-weight="400"><tspan class="TextPosition" x="321" y="5694"><tspan fill="rgb(0,0,0)" stroke="none">2000</tspan></tspan></tspan></text>
 <text class="TextShape"><tspan class="TextParagraph" font-family="Liberation Sans, sans-serif" font-size="353px" font-weight="400"><tspan class="TextPosition" x="321" y="4395"><tspan fill="rgb(0,0,0)" stroke="none">3000</tspan></tspan></tspan></text>
 <text class="TextShape"><tspan class="TextParagraph" font-family="Liberation Sans, sans-serif" font-size="353px" font-weight="400"><tspan class="TextPosition" x="321" y="3096"><tspan fill="rgb(0,0,0)" stroke="none">4000</tspan></tspan></tspan></text>
 <text class="TextShape"><tspan class="TextParagraph" font-family="Liberation Sans, sans-serif" font-size="353px" font-weight="400"><tspan class="TextPosition" x="321" y="1797"><tspan fill="rgb(0,0,0)" stroke="none">5000</tspan></tspan></tspan></text>
 <text class="TextShape"><tspan class="TextParagraph" font-family="Liberation Sans, sans-serif" font-size="353px" font-weight="400"><tspan class="TextPosition" x="321" y="498"><tspan fill="rgb(0,0,0)" stroke="none">6000</tspan></tspan></tspan></text>
</svg>