<?xml version="1.0" standalone="no"?><!DOCTYPE svg PUBLIC "-//W3C//DTD SVG 1.1//EN" "http://www.w3.org/Graphics/SVG/1.1/DTD/svg11.dtd"><svg xmlns:xlink="http://www.w3.org/1999/xlink" version="1.1" style="font-family:'lucida grande', 'lucida sans unicode', arial, helvetica, sans-serif;font-size:12px;" xmlns="http://www.w3.org/2000/svg" width="600" height="400"><desc>Created with Highcharts 4.2.7</desc><defs><clipPath id="highcharts-22"><rect x="1" y="1" width="578" height="296"></rect></clipPath></defs><rect x="10" y="10" width="580" height="298" fill="#ffffff"></rect><rect x="10" y="10" width="580" height="298" stroke="#026FC1" stroke-width="2" fill="none"></rect><g class="highcharts-series-group"><g class="highcharts-series highcharts-series-0" transform="translate(10,10) scale(1 1)"><path fill="#50B432" d="M 289.9780032940009 41.00000224006982 A 108 108 0 1 1 290.0860032847592 256.9999657566381 L 290 149 A 0 0 0 1 0 290 149 Z" stroke="#FFFFFF" stroke-width="1" stroke-linejoin="round" transform="translate(0,0)"></path><path fill="#ED561B" d="M 289.9780032940009 256.9999977599302 A 108 108 0 0 1 253.96265729861952 250.81016614770482 L 290 149 A 0 0 0 0 0 290 149 Z" stroke="#FFFFFF" stroke-width="1" stroke-linejoin="round" transform="translate(0,0)"></path><path fill="#DDDF00" d="M 253.86086516811002 250.77407790593082 A 108 108 0 0 1 247.02908163068906 248.08329917043545 L 290 149 A 0 0 0 0 0 290 149 Z" stroke="#FFFFFF" stroke-width="1" stroke-linejoin="round" transform="translate(0,0)"></path><path fill="#24CBE5" d="M 246.9300198334899 248.0402787175825 A 108 108 0 0 1 240.3959190668278 244.93453577713973 L 290 149 A 0 0 0 0 0 290 149 Z" stroke="#FFFFFF" stroke-width="1" stroke-linejoin="round" transform="translate(0,0)"></path><path fill="#64E572" d="M 240.30000934907815 244.88488373721003 A 108 108 0 0 1 184.27446188012243 171.04791575778344 L 290 149 A 0 0 0 0 0 290 149 Z" stroke="#FFFFFF" stroke-width="1" stroke-linejoin="round" transform="translate(0,0)"></path><path fill="#FF9655" d="M 184.25246683080394 170.94217921332753 A 108 108 0 0 1 182.24526962747112 141.72551841409975 L 290 149 A 0 0 0 0 0 290 149 Z" stroke="#FFFFFF" stroke-width="1" stroke-linejoin="round" transform="translate(0,0)"></path><path fill="#FFF263" d="M 182.25259798520528 141.61776733892685 A 108 108 0 0 1 182.98858619554167 134.4206544875641 L 290 149 A 0 0 0 0 0 290 149 Z" stroke="#FFFFFF" stroke-width="1" stroke-linejoin="round" transform="translate(0,0)"></path><path fill="#6AF9C4" d="M 183.00321904432667 134.31365038126702 A 108 108 0 0 1 184.2265328994908 127.18317948147589 L 290 149 A 0 0 0 0 0 290 149 Z" stroke="#FFFFFF" stroke-width="1" stroke-linejoin="round" transform="translate(0,0)"></path><path fill="#2F7ED8" d="M 184.2484026031023 127.07741694041364 A 108 108 0 0 1 206.18587159995417 80.88838659567205 L 290 149 A 0 0 0 0 0 290 149 Z" stroke="#FFFFFF" stroke-width="1" stroke-linejoin="round" transform="translate(0,0)"></path><path fill="#0D233A" d="M 206.25402510906724 80.80460653704489 A 108 108 0 0 1 221.72243151278565 65.32100836247037 L 290 149 A 0 0 0 0 0 290 149 Z" stroke="#FFFFFF" stroke-width="1" stroke-linejoin="round" transform="translate(0,0)"></path><path fill="#8BBC21" d="M 221.8061446292581 65.25277264485506 A 108 108 0 0 1 227.65417175233304 60.81271236673388 L 290 149 A 0 0 0 0 0 290 149 Z" stroke="#FFFFFF" stroke-width="1" stroke-linejoin="round" transform="translate(0,0)"></path><path fill="#910000" d="M 227.74239019817998 60.75041064251731 A 108 108 0 0 1 233.79037491571302 56.78027300038296 L 290 149 A 0 0 0 0 0 290 149 Z" stroke="#FFFFFF" stroke-width="1" stroke-linejoin="round" transform="translate(0,0)"></path><path fill="#1AADCE" d="M 233.8826227321529 56.72410949452659 A 108 108 0 0 1 267.97361815858216 43.269973503379575 L 290 149 A 0 0 0 0 0 290 149 Z" stroke="#FFFFFF" stroke-width="1" stroke-linejoin="round" transform="translate(0,0)"></path><path fill="#B3DE59" d="M 268.07935918064715 43.24799999021805 A 108 108 0 0 1 282.51200240221215 41.259896547406626 L 290 149 A 0 0 0 0 0 290 149 Z" stroke="#FFFFFF" stroke-width="1" stroke-linejoin="round" transform="translate(0,0)"></path><path fill="#B34E65" d="M 282.6197462317066 41.25246242110407 A 108 108 0 0 1 289.84999016668826 41.000104180374734 L 290 149 A 0 0 0 0 0 290 149 Z" stroke="#FFFFFF" stroke-width="1" stroke-linejoin="round" transform="translate(0,0)"></path></g><g class="highcharts-markers highcharts-series-0" transform="translate(10,10) scale(1 1)"></g></g><g class="highcharts-data-labels highcharts-series-0" transform="translate(10,10) scale(1 1)" opacity="1"><path fill="none" d="M 433 149 C 428 149 420 149 409 149 L 398 149" stroke="#50B432" stroke-width="1"></path><path fill="none" d="M 261.5523668660439 284.99341344497316 C 266.5523668660439 284.99341344497316 267.91164994627337 277.10973730323565 269.7806641815887 266.26968260834644 L 271.649678416904 255.42962791345727" stroke="#ED561B" stroke-width="1"></path><path fill="none" d="M 207.23111161910566 263 C 212.23111161910566 263 242.30895155430264 269.93619763391837 246.34434796124626 259.7031347572022 L 250.37974436818988 249.470071880486" stroke="#DDDF00" stroke-width="1"></path><path fill="none" d="M 183.04412719220144 242 C 188.04412719220144 242 234.16715240608926 266.3997152021892 238.89147027942016 256.46589314661935 L 243.61578815275107 246.5320710910495" stroke="#24CBE5" stroke-width="1"></path><path fill="none" d="M 167.2714987779085 221 C 172.2714987779085 221 186.41533551593236 227.55073063774228 195.18019174150731 220.90413035301023 L 203.94504796708227 214.2575300682782" stroke="#64E572" stroke-width="1"></path><path fill="none" d="M 156.76973836102493 200 C 161.76973836102493 200 160.3030600052299 157.8715137374072 171.27741646632583 157.12084719039584 L 182.25177292742177 156.37018064338446" stroke="#FF9655" stroke-width="1"></path><path fill="none" d="M 150.3003340761381 179 C 155.3003340761381 179 160.6815537484477 135.70566063753552 171.62388381588673 136.8305662758979 L 182.56621388332576 137.95547191426027" stroke="#FFF263" stroke-width="1"></path><path fill="none" d="M 147.293790989658 158 C 152.293790989658 158 161.8902626967644 126.91164994627326 172.73031739165359 128.7806641815886 L 183.57037208654276 130.64967841690395" stroke="#6AF9C4" stroke-width="1"></path><path fill="none" d="M 147.5227291513248 137 C 152.5227291513248 137 172.6002847978108 93.16715240608929 182.53410685338065 97.89147027942019 L 192.4679289089505 102.6157881527511" stroke="#2F7ED8" stroke-width="1"></path><path fill="none" d="M 151.00373139523623 116 C 156.00373139523623 116 198.07611844574888 57.07611844574876 205.8542930388009 64.85429303880079 L 213.63246763185293 72.63246763185282" stroke="#0D233A" stroke-width="1"></path><path fill="none" d="M 158.00393706889963 95 C 163.00393706889963 95 211.44926936225784 45.41533551593231 218.09586964698985 54.18019174150727 L 224.74246993172187 62.94504796708223" stroke="#8BBC21" stroke-width="1"></path><path fill="none" d="M 169.15959254215306 74 C 174.15959254215306 74 218.70125673758878 40.29632384688743 224.73422732133128 49.49432721368927 L 230.76719790507377 58.6923305804911" stroke="#910000" stroke-width="1"></path><path fill="none" d="M 185.86373014885015 53 C 190.86373014885015 53 242.3089515543029 28.06380236608159 246.34434796124648 38.296865242797764 L 250.37974436819007 48.52992811951394" stroke="#1AADCE" stroke-width="1"></path><path fill="none" d="M 211.82213449409718 32 C 216.82213449409718 32 272.29833561748814 20.210827015276983 273.7961687575468 31.108372421676624 L 275.2940018976055 42.005917828076264" stroke="#B3DE59" stroke-width="1"></path><path fill="none" d="M 280.2885267943373 11 C 285.2885267943373 11 285.5616556758244 19.075787092397363 285.93720788787004 30.069374338425277 L 286.3127600999157 41.06296158445319" stroke="#B34E65" stroke-width="1"></path><g style="cursor:pointer;" transform="translate(438,139)"><text x="5" style="font-size:10px;font-weight:bold;font-family:'arial', sans-serif;color:#000;text-shadow:none;fill:#000;text-rendering:geometricprecision;" y="15"><tspan>mount on: 46</tspan></text></g><g style="cursor:pointer;" transform="translate(189,275)"><text x="5" style="font-size:10px;font-weight:bold;font-family:'arial', sans-serif;color:#000;text-shadow:none;fill:#000;text-rendering:geometricprecision;" y="15"><tspan>mount by: 5</tspan></text></g><g style="cursor:pointer;" transform="translate(118,253)"><text x="5" style="font-size:10px;font-weight:bold;font-family:'arial', sans-serif;color:#000;text-shadow:none;fill:#000;text-rendering:geometricprecision;" y="15"><tspan>mount above: 1</tspan></text></g><g style="cursor:pointer;" transform="translate(101,232)"><text x="5" style="font-size:10px;font-weight:bold;font-family:'arial', sans-serif;color:#000;text-shadow:none;fill:#000;text-rendering:geometricprecision;" y="15"><tspan>mount from: 1</tspan></text></g><g style="cursor:pointer;" transform="translate(92,211)"><text x="5" style="font-size:10px;font-weight:bold;font-family:'arial', sans-serif;color:#000;text-shadow:none;fill:#000;text-rendering:geometricprecision;" y="15"><tspan>mount in: 13</tspan></text></g><g style="cursor:pointer;" transform="translate(76,190)"><text x="5" style="font-size:10px;font-weight:bold;font-family:'arial', sans-serif;color:#000;text-shadow:none;fill:#000;text-rendering:geometricprecision;" y="15"><tspan>mount with: 4</tspan></text></g><g style="cursor:pointer;" transform="translate(55,169)"><text x="5" style="font-size:10px;font-weight:bold;font-family:'arial', sans-serif;color:#000;text-shadow:none;fill:#000;text-rendering:geometricprecision;" y="15"><tspan>mount against: 1</tspan></text></g><g style="cursor:pointer;" transform="translate(75,148)"><text x="5" style="font-size:10px;font-weight:bold;font-family:'arial', sans-serif;color:#000;text-shadow:none;fill:#000;text-rendering:geometricprecision;" y="15"><tspan>mount off: 1</tspan></text></g><g style="cursor:pointer;" transform="translate(78,127)"><text x="5" style="font-size:10px;font-weight:bold;font-family:'arial', sans-serif;color:#000;text-shadow:none;fill:#000;text-rendering:geometricprecision;" y="15"><tspan>mount to: 7</tspan></text></g><g style="cursor:pointer;" transform="translate(77,106)"><text x="5" style="font-size:10px;font-weight:bold;font-family:'arial', sans-serif;color:#000;text-shadow:none;fill:#000;text-rendering:geometricprecision;" y="15"><tspan>mount for: 3</tspan></text></g><g style="cursor:pointer;" transform="translate(77,85)"><text x="5" style="font-size:10px;font-weight:bold;font-family:'arial', sans-serif;color:#000;text-shadow:none;fill:#000;text-rendering:geometricprecision;" y="15"><tspan>mount atop: 1</tspan></text></g><g style="cursor:pointer;" transform="translate(85,64)"><text x="5" style="font-size:10px;font-weight:bold;font-family:'arial', sans-serif;color:#000;text-shadow:none;fill:#000;text-rendering:geometricprecision;" y="15"><tspan>mount upon: 1</tspan></text></g><g style="cursor:pointer;" transform="translate(117,43)"><text x="5" style="font-size:10px;font-weight:bold;font-family:'arial', sans-serif;color:#000;text-shadow:none;fill:#000;text-rendering:geometricprecision;" y="15"><tspan>mount at: 5</tspan></text></g><g style="cursor:pointer;" transform="translate(130,22)"><text x="5" style="font-size:10px;font-weight:bold;font-family:'arial', sans-serif;color:#000;text-shadow:none;fill:#000;text-rendering:geometricprecision;" y="15"><tspan>mount over: 2</tspan></text></g><g style="cursor:pointer;" transform="translate(188,1)"><text x="5" style="font-size:10px;font-weight:bold;font-family:'arial', sans-serif;color:#000;text-shadow:none;fill:#000;text-rendering:geometricprecision;" y="15"><tspan>mount behind: 1</tspan></text></g></g><g class="highcharts-legend" transform="translate(28,320)"><g><g><g class="highcharts-legend-item" transform="translate(8,3)"><text x="21" style="color:#333;font-size:9pt;font-weight:normal;cursor:pointer;font-family:'lucida grande','lucida sans unicode',arial,helvetica,sans-serif;text-transform:none;fill:#333;" text-anchor="start" y="15"><tspan>mount on</tspan></text><rect x="0" y="4" width="16" height="12" fill="#50B432"></rect></g><g class="highcharts-legend-item" transform="translate(105.578125,3)"><text x="21" y="15" style="color:#333;font-size:9pt;font-weight:normal;cursor:pointer;font-family:'lucida grande','lucida sans unicode',arial,helvetica,sans-serif;text-transform:none;fill:#333;" text-anchor="start"><tspan>mount by</tspan></text><rect x="0" y="4" width="16" height="12" fill="#ED561B"></rect></g><g class="highcharts-legend-item" transform="translate(202.884765625,3)"><text x="21" y="15" style="color:#333;font-size:9pt;font-weight:normal;cursor:pointer;font-family:'lucida grande','lucida sans unicode',arial,helvetica,sans-serif;text-transform:none;fill:#333;" text-anchor="start"><tspan>mount above</tspan></text><rect x="0" y="4" width="16" height="12" fill="#DDDF00"></rect></g><g class="highcharts-legend-item" transform="translate(320.400390625,3)"><text x="21" y="15" style="color:#333;font-size:9pt;font-weight:normal;cursor:pointer;font-family:'lucida grande','lucida sans unicode',arial,helvetica,sans-serif;text-transform:none;fill:#333;" text-anchor="start"><tspan>mount from</tspan></text><rect x="0" y="4" width="16" height="12" fill="#24CBE5"></rect></g><g class="highcharts-legend-item" transform="translate(431.056640625,3)"><text x="21" y="15" style="color:#333;font-size:9pt;font-weight:normal;cursor:pointer;font-family:'lucida grande','lucida sans unicode',arial,helvetica,sans-serif;text-transform:none;fill:#333;" text-anchor="start"><tspan>mount in</tspan></text><rect x="0" y="4" width="16" height="12" fill="#64E572"></rect></g><g class="highcharts-legend-item" transform="translate(8,21)"><text x="21" y="15" style="color:#333;font-size:9pt;font-weight:normal;cursor:pointer;font-family:'lucida grande','lucida sans unicode',arial,helvetica,sans-serif;text-transform:none;fill:#333;" text-anchor="start"><tspan>mount with</tspan></text><rect x="0" y="4" width="16" height="12" fill="#FF9655"></rect></g><g class="highcharts-legend-item" transform="translate(115.40625,21)"><text x="21" y="15" style="color:#333;font-size:9pt;font-weight:normal;cursor:pointer;font-family:'lucida grande','lucida sans unicode',arial,helvetica,sans-serif;text-transform:none;fill:#333;" text-anchor="start"><tspan>mount against</tspan></text><rect x="0" y="4" width="16" height="12" fill="#FFF263"></rect></g><g class="highcharts-legend-item" transform="translate(240.9296875,21)"><text x="21" y="15" style="color:#333;font-size:9pt;font-weight:normal;cursor:pointer;font-family:'lucida grande','lucida sans unicode',arial,helvetica,sans-serif;text-transform:none;fill:#333;" text-anchor="start"><tspan>mount off</tspan></text><rect x="0" y="4" width="16" height="12" fill="#6AF9C4"></rect></g><g class="highcharts-legend-item" transform="translate(341.466796875,21)"><text x="21" y="15" style="color:#333;font-size:9pt;font-weight:normal;cursor:pointer;font-family:'lucida grande','lucida sans unicode',arial,helvetica,sans-serif;text-transform:none;fill:#333;" text-anchor="start"><tspan>mount to</tspan></text><rect x="0" y="4" width="16" height="12" fill="#2F7ED8"></rect></g><g class="highcharts-legend-item" transform="translate(436.708984375,21)"><text x="21" y="15" style="color:#333;font-size:9pt;font-weight:normal;cursor:pointer;font-family:'lucida grande','lucida sans unicode',arial,helvetica,sans-serif;text-transform:none;fill:#333;" text-anchor="start"><tspan>mount for</tspan></text><rect x="0" y="4" width="16" height="12" fill="#0D233A"></rect></g><g class="highcharts-legend-item" transform="translate(8,39)"><text x="21" y="15" style="color:#333;font-size:9pt;font-weight:normal;cursor:pointer;font-family:'lucida grande','lucida sans unicode',arial,helvetica,sans-serif;text-transform:none;fill:#333;" text-anchor="start"><tspan>mount atop</tspan></text><rect x="0" y="4" width="16" height="12" fill="#8BBC21"></rect></g><g class="highcharts-legend-item" transform="translate(117.240234375,39)"><text x="21" y="15" style="color:#333;font-size:9pt;font-weight:normal;cursor:pointer;font-family:'lucida grande','lucida sans unicode',arial,helvetica,sans-serif;text-transform:none;fill:#333;" text-anchor="start"><tspan>mount upon</tspan></text><rect x="0" y="4" width="16" height="12" fill="#910000"></rect></g><g class="highcharts-legend-item" transform="translate(229.818359375,39)"><text x="21" y="15" style="color:#333;font-size:9pt;font-weight:normal;cursor:pointer;font-family:'lucida grande','lucida sans unicode',arial,helvetica,sans-serif;text-transform:none;fill:#333;" text-anchor="start"><tspan>mount at</tspan></text><rect x="0" y="4" width="16" height="12" fill="#1AADCE"></rect></g><g class="highcharts-legend-item" transform="translate(324.19921875,39)"><text x="21" y="15" style="color:#333;font-size:9pt;font-weight:normal;cursor:pointer;font-family:'lucida grande','lucida sans unicode',arial,helvetica,sans-serif;text-transform:none;fill:#333;" text-anchor="start"><tspan>mount over</tspan></text><rect x="0" y="4" width="16" height="12" fill="#B3DE59"></rect></g><g class="highcharts-legend-item" transform="translate(432.220703125,39)"><text x="21" y="15" style="color:#333;font-size:9pt;font-weight:normal;cursor:pointer;font-family:'lucida grande','lucida sans unicode',arial,helvetica,sans-serif;text-transform:none;fill:#333;" text-anchor="start"><tspan>mount behind</tspan></text><rect x="0" y="4" width="16" height="12" fill="#B34E65"></rect></g></g></g></g><g class="highcharts-tooltip" display="none" style="cursor:default;padding:0;pointer-events:none;white-space:nowrap;" transform="translate(0,0)"><path fill="none" d="M 3.5 0.5 L 13.5 0.5 C 16.5 0.5 16.5 0.5 16.5 3.5 L 16.5 13.5 C 16.5 16.5 16.5 16.5 13.5 16.5 L 3.5 16.5 C 0.5 16.5 0.5 16.5 0.5 13.5 L 0.5 3.5 C 0.5 0.5 0.5 0.5 3.5 0.5"  stroke="black" stroke-opacity="0.049999999999999996" stroke-width="5" transform="translate(1, 1)"></path><path fill="none" d="M 3.5 0.5 L 13.5 0.5 C 16.5 0.5 16.5 0.5 16.5 3.5 L 16.5 13.5 C 16.5 16.5 16.5 16.5 13.5 16.5 L 3.5 16.5 C 0.5 16.5 0.5 16.5 0.5 13.5 L 0.5 3.5 C 0.5 0.5 0.5 0.5 3.5 0.5"  stroke="black" stroke-opacity="0.09999999999999999" stroke-width="3" transform="translate(1, 1)"></path><path fill="none" d="M 3.5 0.5 L 13.5 0.5 C 16.5 0.5 16.5 0.5 16.5 3.5 L 16.5 13.5 C 16.5 16.5 16.5 16.5 13.5 16.5 L 3.5 16.5 C 0.5 16.5 0.5 16.5 0.5 13.5 L 0.5 3.5 C 0.5 0.5 0.5 0.5 3.5 0.5"  stroke="black" stroke-opacity="0.15" stroke-width="1" transform="translate(1, 1)"></path><path fill="rgb(249, 249, 249)" fill-opacity=" .85" d="M 3.5 0.5 L 13.5 0.5 C 16.5 0.5 16.5 0.5 16.5 3.5 L 16.5 13.5 C 16.5 16.5 16.5 16.5 13.5 16.5 L 3.5 16.5 C 0.5 16.5 0.5 16.5 0.5 13.5 L 0.5 3.5 C 0.5 0.5 0.5 0.5 3.5 0.5"></path><text x="8" style="font-size:12px;color:#000000;fill:#000000;" y="20"></text></g><text x="590" text-anchor="end" style="cursor:pointer;color:#909090;font-size:9px;fill:#909090;" y="395">meta-chart.com</text></svg>
