<?xml version="1.0" encoding="UTF-8"?>
<svg width="523.11" height="450.16" shape-rendering="auto" text-rendering="auto" version="1.1" xmlns="http://www.w3.org/2000/svg">
 <defs>
  <clipPath id="a">
   <path d="m5 27v549h1051v-549z"/>
  </clipPath>
 </defs>
 <g transform="translate(-268.95 -76.429)" clip-path="url(#a)" fill="#f55" fill-opacity=".5">
  <path d="m619.87 514.36c-110.54 30.53-234.33 1.24-302.43-71.55-68.1-72.8-63.72-171.15 10.71-240.29l202.35 125.48z"/>
 </g>
 <g transform="translate(-268.95 -76.429)" clip-path="url(#a)" fill="none" shape-rendering="geometricPrecision" stroke="#808080" stroke-linecap="round" stroke-linejoin="round" stroke-opacity=".5" stroke-width=".5">
  <path d="m619.87 514.36c-110.54 30.53-234.33 1.24-302.43-71.55-68.1-72.8-63.72-171.15 10.71-240.29l202.35 125.48z"/>
 </g>
 <g transform="translate(-268.95 -76.429)" clip-path="url(#a)" fill="#c0c0c0" fill-opacity=".5">
  <path d="m530 328v-53l89 186v53z"/>
 </g>
 <g transform="translate(-268.95 -76.429)" clip-path="url(#a)" fill="none" shape-rendering="geometricPrecision" stroke="#808080" stroke-linecap="round" stroke-linejoin="round" stroke-opacity=".5" stroke-width=".5">
  <path d="m530 328v-53l89 186v53z"/>
 </g>
 <g transform="translate(-268.95 -76.429)" clip-path="url(#a)" fill="#55f" fill-opacity=".5">
  <path d="m328.15 202.52c33.49-31.1 78.63-53.76 129.45-64.96l72.9 190.44z"/>
 </g>
 <g transform="translate(-268.95 -76.429)" clip-path="url(#a)" fill="none" shape-rendering="geometricPrecision" stroke="#808080" stroke-linecap="round" stroke-linejoin="round" stroke-opacity=".5" stroke-width=".5">
  <path d="m328.15 202.52c33.49-31.1 78.63-53.76 129.45-64.96l72.9 190.44z"/>
 </g>
 <g transform="translate(-268.95 -76.429)" clip-path="url(#a)" fill="#c0c0c0" fill-opacity=".5">
  <path d="m530 328v-53l-202-126v53z"/>
 </g>
 <g transform="translate(-268.95 -76.429)" clip-path="url(#a)" fill="none" shape-rendering="geometricPrecision" stroke="#808080" stroke-linecap="round" stroke-linejoin="round" stroke-opacity=".5" stroke-width=".5">
  <path d="m530 328v-53l-202-126v53z"/>
 </g>
 <g transform="translate(-268.95 -76.429)" clip-path="url(#a)" fill="#5f5" fill-opacity=".5">
  <path d="m457.6 137.56c90.37-19.93 187.88-1.43 255.27 48.41l-182.37 142.03z"/>
 </g>
 <g transform="translate(-268.95 -76.429)" clip-path="url(#a)" fill="none" shape-rendering="geometricPrecision" stroke="#808080" stroke-linecap="round" stroke-linejoin="round" stroke-opacity=".5" stroke-width=".5">
  <path d="m457.6 137.56c90.37-19.93 187.88-1.43 255.27 48.41l-182.37 142.03z"/>
 </g>
 <g transform="translate(-268.95 -76.429)" clip-path="url(#a)" fill="#c0c0c0" fill-opacity=".5">
  <path d="m530 328v-53l-73-191v53z"/>
 </g>
 <g transform="translate(-268.95 -76.429)" clip-path="url(#a)" fill="none" shape-rendering="geometricPrecision" stroke="#808080" stroke-linecap="round" stroke-linejoin="round" stroke-opacity=".5" stroke-width=".5">
  <path d="m530 328v-53l-73-191v53z"/>
 </g>
 <g transform="translate(-268.95 -76.429)" clip-path="url(#a)" fill="#ff5" fill-opacity=".5">
  <path d="m712.87 185.97c62.38 46.14 90.37 112.83 74.64 177.84-15.73 65.02-73.1 119.81-153 146.12l-104.01-181.93z"/>
 </g>
 <g transform="translate(-268.95 -76.429)" clip-path="url(#a)" fill="none" shape-rendering="geometricPrecision" stroke="#808080" stroke-linecap="round" stroke-linejoin="round" stroke-opacity=".5" stroke-width=".5">
  <path d="m712.87 185.97c62.38 46.14 90.37 112.83 74.64 177.84-15.73 65.02-73.1 119.81-153 146.12l-104.01-181.93z"/>
 </g>
 <g transform="translate(-268.95 -76.429)" clip-path="url(#a)" fill="#c0c0c0" fill-opacity=".5">
  <path d="m530 328v-53l182-143v53z"/>
 </g>
 <g transform="translate(-268.95 -76.429)" clip-path="url(#a)" fill="none" shape-rendering="geometricPrecision" stroke="#808080" stroke-linecap="round" stroke-linejoin="round" stroke-opacity=".5" stroke-width=".5">
  <path d="m530 328v-53l182-143v53z"/>
 </g>
 <g transform="translate(-268.95 -76.429)" clip-path="url(#a)" fill="#f5f" fill-opacity=".5">
  <path d="m634.51 509.93c-4.82 1.59-9.7 3.06-14.64 4.43l-89.37-186.36z"/>
 </g>
 <g transform="translate(-268.95 -76.429)" clip-path="url(#a)" fill="none" shape-rendering="geometricPrecision" stroke="#808080" stroke-linecap="round" stroke-linejoin="round" stroke-opacity=".5" stroke-width=".5">
  <path d="m634.51 509.93c-4.82 1.59-9.7 3.06-14.64 4.43l-89.37-186.36z"/>
 </g>
 <g transform="translate(-268.95 -76.429)" clip-path="url(#a)" fill="#c0c0c0" fill-opacity=".5">
  <path d="m530 328v-53l104 181v53z"/>
 </g>
 <g transform="translate(-268.95 -76.429)" clip-path="url(#a)" fill="none" shape-rendering="geometricPrecision" stroke="#808080" stroke-linecap="round" stroke-linejoin="round" stroke-opacity=".5" stroke-width=".5">
  <path d="m530 328v-53l104 181v53z"/>
 </g>
 <g transform="translate(-268.95 -76.429)" clip-path="url(#a)" fill="#808080" fill-opacity=".5">
  <path d="m530.5 76.68c-144.31 0-261.3 88.79-261.3 198.32v53c0-109.53 116.99-198.32 261.3-198.32s261.3 88.79 261.3 198.32v-53c0-109.53-116.99-198.32-261.3-198.32z"/>
  <path d="m269.2 275v53c0 109.53 116.99 198.32 261.3 198.32s261.3-88.79 261.3-198.32v-53c0 109.53-116.99 198.32-261.3 198.32s-261.3-88.79-261.3-198.32z"/>
 </g>
 <g transform="translate(-268.95 -76.429)" clip-path="url(#a)" fill="#f55" fill-opacity=".5">
  <path d="m328.15 149.51c-36.85 34.19-58.95 77.88-58.95 125.49v53c0-47.61 22.1-91.3 58.95-125.49z"/>
 </g>
 <g transform="translate(-268.95 -76.429)" clip-path="url(#a)" fill="none" shape-rendering="geometricPrecision" stroke="#808080" stroke-linecap="round" stroke-linejoin="round" stroke-opacity=".5" stroke-width=".5">
  <path d="m328.15 149.51c-36.85 34.19-58.95 77.88-58.95 125.49v53c0-47.61 22.1-91.3 58.95-125.49z"/>
 </g>
 <g transform="translate(-268.95 -76.429)" clip-path="url(#a)" fill="#55f" fill-opacity=".5">
  <path d="m457.6 84.5c-51.47 11.33-96.39 34.34-129.45 65.01v53c33.06-30.67 77.98-53.68 129.45-65.01z"/>
 </g>
 <g transform="translate(-268.95 -76.429)" clip-path="url(#a)" fill="none" shape-rendering="geometricPrecision" stroke="#808080" stroke-linecap="round" stroke-linejoin="round" stroke-opacity=".5" stroke-width=".5">
  <path d="m457.6 84.5c-51.47 11.33-96.39 34.34-129.45 65.01v53c33.06-30.67 77.98-53.68 129.45-65.01z"/>
 </g>
 <g transform="translate(-268.95 -76.429)" clip-path="url(#a)" fill="#5f5" fill-opacity=".5">
  <path d="m530.5 76.68c-25.3 0-49.76 2.73-72.9 7.82v53c23.14-5.09 47.6-7.82 72.9-7.82 70.95 0 135.29 21.46 182.37 56.29v-53c-47.08-34.83-111.42-56.29-182.37-56.29z"/>
 </g>
 <g transform="translate(-268.95 -76.429)" clip-path="url(#a)" fill="none" shape-rendering="geometricPrecision" stroke="#808080" stroke-linecap="round" stroke-linejoin="round" stroke-opacity=".5" stroke-width=".5">
  <path d="m530.5 76.68c-25.3 0-49.76 2.73-72.9 7.82v53c23.14-5.09 47.6-7.82 72.9-7.82 70.95 0 135.29 21.46 182.37 56.29v-53c-47.08-34.83-111.42-56.29-182.37-56.29z"/>
 </g>
 <g transform="translate(-268.95 -76.429)" clip-path="url(#a)" fill="#ff5" fill-opacity=".5">
  <path d="m712.87 132.97v53c48.7 36.02 78.93 86.35 78.93 142.03v-53c0-55.68-30.23-106.01-78.93-142.03z"/>
 </g>
 <g transform="translate(-268.95 -76.429)" clip-path="url(#a)" fill="none" shape-rendering="geometricPrecision" stroke="#808080" stroke-linecap="round" stroke-linejoin="round" stroke-opacity=".5" stroke-width=".5">
  <path d="m712.87 132.97v53c48.7 36.02 78.93 86.35 78.93 142.03v-53c0-55.68-30.23-106.01-78.93-142.03z"/>
 </g>
 <g transform="translate(-268.95 -76.429)" clip-path="url(#a)" fill="#f55" fill-opacity=".5">
  <path d="m269.2 275v53c0 109.53 116.99 198.32 261.3 198.32 31.39 0 61.49-4.21 89.37-11.91v-53c-27.88 7.7-57.98 11.91-89.37 11.91-144.31 0-261.3-88.79-261.3-198.32z"/>
 </g>
 <g transform="translate(-268.95 -76.429)" clip-path="url(#a)" fill="none" shape-rendering="geometricPrecision" stroke="#808080" stroke-linecap="round" stroke-linejoin="round" stroke-opacity=".5" stroke-width=".5">
  <path d="m269.2 275v53c0 109.53 116.99 198.32 261.3 198.32 31.39 0 61.49-4.21 89.37-11.91v-53c-27.88 7.7-57.98 11.91-89.37 11.91-144.31 0-261.3-88.79-261.3-198.32z"/>
 </g>
 <g transform="translate(-268.95 -76.429)" clip-path="url(#a)" fill="#ff5" fill-opacity=".5">
  <path d="m791.8 275c0 81.47-64.73 151.47-157.29 181.98v53c92.56-30.51 157.29-100.51 157.29-181.98z"/>
 </g>
 <g transform="translate(-268.95 -76.429)" clip-path="url(#a)" fill="none" shape-rendering="geometricPrecision" stroke="#808080" stroke-linecap="round" stroke-linejoin="round" stroke-opacity=".5" stroke-width=".5">
  <path d="m791.8 275c0 81.47-64.73 151.47-157.29 181.98v53c92.56-30.51 157.29-100.51 157.29-181.98z"/>
 </g>
 <g transform="translate(-268.95 -76.429)" clip-path="url(#a)" fill="#f5f" fill-opacity=".5">
  <path d="m634.51 456.98c-4.81 1.59-9.69 3.07-14.64 4.43v53c4.95-1.36 9.83-2.84 14.64-4.43z"/>
 </g>
 <g transform="translate(-268.95 -76.429)" clip-path="url(#a)" fill="none" shape-rendering="geometricPrecision" stroke="#808080" stroke-linecap="round" stroke-linejoin="round" stroke-opacity=".5" stroke-width=".5">
  <path d="m634.51 456.98c-4.81 1.59-9.69 3.07-14.64 4.43v53c4.95-1.36 9.83-2.84 14.64-4.43z"/>
 </g>
 <g transform="translate(-268.95 -76.429)" clip-path="url(#a)" fill="#f55" fill-opacity=".5">
  <path d="m619.87 461.36c-110.54 30.53-234.33 1.24-302.43-71.55-68.1-72.8-63.72-171.15 10.71-240.29l202.35 125.48z"/>
 </g>
 <g transform="translate(-268.95 -76.429)" clip-path="url(#a)" fill="none" shape-rendering="geometricPrecision" stroke="#808080" stroke-linecap="round" stroke-linejoin="round" stroke-opacity=".5" stroke-width=".5">
  <path d="m619.87 461.36c-110.54 30.53-234.33 1.24-302.43-71.55-68.1-72.8-63.72-171.15 10.71-240.29l202.35 125.48z"/>
 </g>
 <g transform="translate(-268.95 -76.429)" clip-path="url(#a)" fill="#55f" fill-opacity=".5">
  <path d="m328.15 149.52c33.49-31.1 78.63-53.76 129.45-64.96l72.9 190.44z"/>
 </g>
 <g transform="translate(-268.95 -76.429)" clip-path="url(#a)" fill="none" shape-rendering="geometricPrecision" stroke="#808080" stroke-linecap="round" stroke-linejoin="round" stroke-opacity=".5" stroke-width=".5">
  <path d="m328.15 149.52c33.49-31.1 78.63-53.76 129.45-64.96l72.9 190.44z"/>
 </g>
 <g transform="translate(-268.95 -76.429)" clip-path="url(#a)" fill="#5f5" fill-opacity=".5">
  <path d="m457.6 84.56c90.37-19.93 187.88-1.43 255.27 48.41l-182.37 142.03z"/>
 </g>
 <g transform="translate(-268.95 -76.429)" clip-path="url(#a)" fill="none" shape-rendering="geometricPrecision" stroke="#808080" stroke-linecap="round" stroke-linejoin="round" stroke-opacity=".5" stroke-width=".5">
  <path d="m457.6 84.56c90.37-19.93 187.88-1.43 255.27 48.41l-182.37 142.03z"/>
 </g>
 <g transform="translate(-268.95 -76.429)" clip-path="url(#a)" fill="#ff5" fill-opacity=".5">
  <path d="m712.87 132.97c62.38 46.14 90.37 112.83 74.64 177.84-15.73 65.02-73.1 119.81-153 146.12l-104.01-181.93z"/>
 </g>
 <g transform="translate(-268.95 -76.429)" clip-path="url(#a)" fill="none" shape-rendering="geometricPrecision" stroke="#808080" stroke-linecap="round" stroke-linejoin="round" stroke-opacity=".5" stroke-width=".5">
  <path d="m712.87 132.97c62.38 46.14 90.37 112.83 74.64 177.84-15.73 65.02-73.1 119.81-153 146.12l-104.01-181.93z"/>
 </g>
 <g transform="translate(-268.95 -76.429)" clip-path="url(#a)" fill="#f5f" fill-opacity=".5">
  <path d="m634.51 456.93c-4.82 1.59-9.7 3.06-14.64 4.43l-89.37-186.36z"/>
 </g>
 <g transform="translate(-268.95 -76.429)" clip-path="url(#a)" fill="none" shape-rendering="geometricPrecision" stroke="#808080" stroke-linecap="round" stroke-linejoin="round" stroke-opacity=".5" stroke-width=".5">
  <path d="m634.51 456.93c-4.82 1.59-9.7 3.06-14.64 4.43l-89.37-186.36z"/>
 </g>
</svg>
