<svg xmlns:xlink="http://www.w3.org/1999/xlink" version="1.1" style="font-family:'lucida grande', 'lucida sans unicode', arial, helvetica, sans-serif;font-size:12px;" xmlns="http://www.w3.org/2000/svg" width="600" height="400"><desc>Created with Highcharts 4.2.7</desc><defs><clipPath id="highcharts-4"><rect x="1" y="1" width="578" height="295"></rect></clipPath></defs><rect x="10" y="47" width="580" height="297" fill="#ffffff"></rect><rect x="10" y="47" width="580" height="297" stroke="#026FC1" stroke-width="2" fill="none"></rect><g class="highcharts-series-group"><g class="highcharts-series highcharts-series-0" transform="translate(10,47) scale(1 1)"><path fill="#50B432" d="M 289.97769778419536 39.5000022711819 A 109.5 109.5 0 1 1 261.0685554342866 43.39118637471087 L 290 149 A 0 0 0 1 0 290 149 Z" stroke="#FFFFFF" stroke-width="1" stroke-linejoin="round" transform="translate(0,0)"></path><path fill="#ED561B" d="M 261.17417869603156 43.36230773936947 A 109.5 109.5 0 0 1 289.84790669678114 39.50010562732439 L 290 149 A 0 0 0 0 0 290 149 Z" stroke="#FFFFFF" stroke-width="1" stroke-linejoin="round" transform="translate(0,0)"></path></g><g class="highcharts-markers highcharts-series-0" transform="translate(10,47) scale(1 1)"></g></g><text x="300" text-anchor="middle" class="highcharts-title" style="color:#000000;font-size:10px;font-family:'arial', sans-serif;fill:#000000;width:536px;" y="17"><tspan>transmitted message</tspan></text><text x="300" text-anchor="middle" class="highcharts-subtitle" style="color:#000000;font-size:10px;font-family:'arial', sans-serif;fill:#000000;width:536px;" y="33"><tspan>Google Books Ngram Viewer (2019)</tspan></text><g class="highcharts-data-labels highcharts-series-0" transform="translate(10,47) scale(1 1)" opacity="1"><path fill="none" d="M 313.5043169731405 286.7672783176032 C 308.5043169731405 286.7672783176032 307.443137505147 278.83797203415645 305.9840157366556 267.9351758944171 L 304.5248939681642 257.0323797546778" stroke="#50B432" stroke-width="1"></path><path fill="none" d="M 266.49568302685924 10.232721682396821 C 271.49568302685924 10.232721682396821 272.556862494853 18.1620279658436 274.0159842633444 29.064824105582918 L 275.4751060318358 39.96762024532224" stroke="#ED561B" stroke-width="1"></path><g style="cursor:pointer;" transform="translate(319,277)"><text x="5" style="font-size:10px;font-weight:bold;font-family:'arial', sans-serif;color:#000;text-shadow:none;fill:#000;text-rendering:geometricprecision;" y="15"><tspan>transmitted message: 95.8%</tspan></text></g><g style="cursor:pointer;" transform="translate(123,0)"><text x="5" style="font-size:10px;font-weight:bold;font-family:'arial', sans-serif;color:#000;text-shadow:none;fill:#000;text-rendering:geometricprecision;" y="15"><tspan>transferred message: 4.2%</tspan></text></g></g><g class="highcharts-legend" transform="translate(140,356)"><g><g><g class="highcharts-legend-item" transform="translate(8,3)"><text x="21" style="color:#333;font-size:9pt;font-weight:normal;cursor:pointer;font-family:'lucida grande','lucida sans unicode',arial,helvetica,sans-serif;text-transform:none;fill:#333;" text-anchor="start" y="15"><tspan>transmitted message</tspan></text><rect x="0" y="4" width="16" height="12" fill="#50B432"></rect></g><g class="highcharts-legend-item" transform="translate(171.505859375,3)"><text x="21" y="15" style="color:#333;font-size:9pt;font-weight:normal;cursor:pointer;font-family:'lucida grande','lucida sans unicode',arial,helvetica,sans-serif;text-transform:none;fill:#333;" text-anchor="start"><tspan>transferred message</tspan></text><rect x="0" y="4" width="16" height="12" fill="#ED561B"></rect></g></g></g></g><g class="highcharts-tooltip" display="none" style="cursor:default;padding:0;pointer-events:none;white-space:nowrap;" transform="translate(0,0)"><path fill="none" d="M 3.5 0.5 L 13.5 0.5 C 16.5 0.5 16.5 0.5 16.5 3.5 L 16.5 13.5 C 16.5 16.5 16.5 16.5 13.5 16.5 L 3.5 16.5 C 0.5 16.5 0.5 16.5 0.5 13.5 L 0.5 3.5 C 0.5 0.5 0.5 0.5 3.5 0.5"  stroke="black" stroke-opacity="0.049999999999999996" stroke-width="5" transform="translate(1, 1)"></path><path fill="none" d="M 3.5 0.5 L 13.5 0.5 C 16.5 0.5 16.5 0.5 16.5 3.5 L 16.5 13.5 C 16.5 16.5 16.5 16.5 13.5 16.5 L 3.5 16.5 C 0.5 16.5 0.5 16.5 0.5 13.5 L 0.5 3.5 C 0.5 0.5 0.5 0.5 3.5 0.5"  stroke="black" stroke-opacity="0.09999999999999999" stroke-width="3" transform="translate(1, 1)"></path><path fill="none" d="M 3.5 0.5 L 13.5 0.5 C 16.5 0.5 16.5 0.5 16.5 3.5 L 16.5 13.5 C 16.5 16.5 16.5 16.5 13.5 16.5 L 3.5 16.5 C 0.5 16.5 0.5 16.5 0.5 13.5 L 0.5 3.5 C 0.5 0.5 0.5 0.5 3.5 0.5"  stroke="black" stroke-opacity="0.15" stroke-width="1" transform="translate(1, 1)"></path><path fill="rgb(249, 249, 249)" fill-opacity=" .85" d="M 3.5 0.5 L 13.5 0.5 C 16.5 0.5 16.5 0.5 16.5 3.5 L 16.5 13.5 C 16.5 16.5 16.5 16.5 13.5 16.5 L 3.5 16.5 C 0.5 16.5 0.5 16.5 0.5 13.5 L 0.5 3.5 C 0.5 0.5 0.5 0.5 3.5 0.5"></path><text x="8" style="font-size:12px;color:#000000;fill:#000000;" y="20"></text></g><text x="590" text-anchor="end" style="cursor:pointer;color:#909090;font-size:9px;fill:#909090;" y="395">meta-chart.com</text></svg>