<svg xmlns:xlink="http://www.w3.org/1999/xlink" version="1.1" style="font-family:'lucida grande', 'lucida sans unicode', arial, helvetica, sans-serif;font-size:12px;" xmlns="http://www.w3.org/2000/svg" width="600" height="400"><desc>Created with Highcharts 4.2.7</desc><defs><clipPath id="highcharts-42"><rect x="1" y="1" width="578" height="299"></rect></clipPath></defs><rect x="10" y="48" width="580" height="301" fill="#ffffff"></rect><rect x="10" y="48" width="580" height="301" stroke="#026FC1" stroke-width="2" fill="none"></rect><g class="highcharts-series-group"><g class="highcharts-series highcharts-series-0" transform="translate(10,48) scale(1 1)"><path fill="#50B432" d="M 289.97627207176953 41.5000024163716 A 116.5 116.5 0 1 1 200.47754459390904 83.44813900334577 L 290 158 A 0 0 0 1 0 290 158 Z" stroke="#FFFFFF" stroke-width="1" stroke-linejoin="round" transform="translate(0,0)"></path><path fill="#ED561B" d="M 200.55214120370434 83.3586538387875 A 116.5 116.5 0 0 1 254.30660017278348 47.10260954930247 L 290 158 A 0 0 0 0 0 290 158 Z" stroke="#FFFFFF" stroke-width="1" stroke-linejoin="round" transform="translate(0,0)"></path><path fill="#DDDF00" d="M 254.41751539144974 47.066971604114755 A 116.5 116.5 0 0 1 289.8381838372147 41.500112379756075 L 290 158 A 0 0 0 0 0 290 158 Z" stroke="#FFFFFF" stroke-width="1" stroke-linejoin="round" transform="translate(0,0)"></path></g><g class="highcharts-markers highcharts-series-0" transform="translate(10,48) scale(1 1)"></g></g><text x="300" text-anchor="middle" class="highcharts-title" style="color:#000000;font-size:10px;font-family:'arial', sans-serif;fill:#000000;width:536px;" y="17"><tspan>video game market</tspan></text><text x="300" text-anchor="middle" class="highcharts-subtitle" style="color:#000000;font-size:10px;font-family:'arial', sans-serif;fill:#000000;width:536px;" y="33"><tspan>Google Books Ngram Viewer (2019)</tspan></text><g class="highcharts-data-labels highcharts-series-0" transform="translate(10,48) scale(1 1)" opacity="1"><path fill="none" d="M 357.07847897883875 290.1970702301821 C 352.07847897883875 290.1970702301821 348.68852790832193 282.95081383535984 344.02734518636134 272.9872112924793 L 339.36616246440076 263.02360874959874" stroke="#50B432" stroke-width="1"></path><path fill="none" d="M 203.14023672307343 36.00420107573454 C 208.14023672307343 36.00420107573454 212.6103944446803 42.63878395214495 218.75686131188982 51.761335407209245 L 224.90332817909933 60.88388686227354" stroke="#ED561B" stroke-width="1"></path><path fill="none" d="M 262.3359975628178 11 C 267.3359975628178 11 268.5736222692851 20.66740031213058 270.27535624067764 31.534971406474 L 271.97709021207015 42.40254250081742" stroke="#DDDF00" stroke-width="1"></path><g style="cursor:pointer;" transform="translate(362,280)"><text x="5" style="font-size:10px;font-weight:bold;font-family:'arial', sans-serif;color:#000;text-shadow:none;fill:#000;text-rendering:geometricprecision;" y="15"><tspan>video game market: 86.1%</tspan></text></g><g style="cursor:pointer;" transform="translate(71,26)"><text x="5" style="font-size:10px;font-weight:bold;font-family:'arial', sans-serif;color:#000;text-shadow:none;fill:#000;text-rendering:geometricprecision;" y="15"><tspan>videogame market: 9.0%</tspan></text></g><g style="cursor:pointer;" transform="translate(127,1)"><text x="5" style="font-size:10px;font-weight:bold;font-family:'arial', sans-serif;color:#000;text-shadow:none;fill:#000;text-rendering:geometricprecision;" y="15"><tspan>video-game market: 4.9%</tspan></text></g></g><g class="highcharts-legend" transform="translate(88,361)"><g><g><g class="highcharts-legend-item" transform="translate(8,3)"><text x="21" style="color:#333;font-size:9pt;font-weight:normal;cursor:pointer;font-family:'lucida grande','lucida sans unicode',arial,helvetica,sans-serif;text-transform:none;fill:#333;" text-anchor="start" y="15"><tspan>video game market</tspan></text><rect x="0" y="4" width="16" height="12" fill="#50B432"></rect></g><g class="highcharts-legend-item" transform="translate(151.4375,3)"><text x="21" y="15" style="color:#333;font-size:9pt;font-weight:normal;cursor:pointer;font-family:'lucida grande','lucida sans unicode',arial,helvetica,sans-serif;text-transform:none;fill:#333;" text-anchor="start"><tspan>videogame market</tspan></text><rect x="0" y="4" width="16" height="12" fill="#ED561B"></rect></g><g class="highcharts-legend-item" transform="translate(291.546875,3)"><text x="21" y="15" style="color:#333;font-size:9pt;font-weight:normal;cursor:pointer;font-family:'lucida grande','lucida sans unicode',arial,helvetica,sans-serif;text-transform:none;fill:#333;" text-anchor="start"><tspan>video-game market</tspan></text><rect x="0" y="4" width="16" height="12" fill="#DDDF00"></rect></g></g></g></g><g class="highcharts-tooltip" display="none" style="cursor:default;padding:0;pointer-events:none;white-space:nowrap;" transform="translate(0,0)"><path fill="none" d="M 3.5 0.5 L 13.5 0.5 C 16.5 0.5 16.5 0.5 16.5 3.5 L 16.5 13.5 C 16.5 16.5 16.5 16.5 13.5 16.5 L 3.5 16.5 C 0.5 16.5 0.5 16.5 0.5 13.5 L 0.5 3.5 C 0.5 0.5 0.5 0.5 3.5 0.5"  stroke="black" stroke-opacity="0.049999999999999996" stroke-width="5" transform="translate(1, 1)"></path><path fill="none" d="M 3.5 0.5 L 13.5 0.5 C 16.5 0.5 16.5 0.5 16.5 3.5 L 16.5 13.5 C 16.5 16.5 16.5 16.5 13.5 16.5 L 3.5 16.5 C 0.5 16.5 0.5 16.5 0.5 13.5 L 0.5 3.5 C 0.5 0.5 0.5 0.5 3.5 0.5"  stroke="black" stroke-opacity="0.09999999999999999" stroke-width="3" transform="translate(1, 1)"></path><path fill="none" d="M 3.5 0.5 L 13.5 0.5 C 16.5 0.5 16.5 0.5 16.5 3.5 L 16.5 13.5 C 16.5 16.5 16.5 16.5 13.5 16.5 L 3.5 16.5 C 0.5 16.5 0.5 16.5 0.5 13.5 L 0.5 3.5 C 0.5 0.5 0.5 0.5 3.5 0.5"  stroke="black" stroke-opacity="0.15" stroke-width="1" transform="translate(1, 1)"></path><path fill="rgb(249, 249, 249)" fill-opacity=" .85" d="M 3.5 0.5 L 13.5 0.5 C 16.5 0.5 16.5 0.5 16.5 3.5 L 16.5 13.5 C 16.5 16.5 16.5 16.5 13.5 16.5 L 3.5 16.5 C 0.5 16.5 0.5 16.5 0.5 13.5 L 0.5 3.5 C 0.5 0.5 0.5 0.5 3.5 0.5"></path><text x="8" style="font-size:12px;color:#000000;fill:#000000;" y="20"></text></g><text x="590" text-anchor="end" style="cursor:pointer;color:#909090;font-size:9px;fill:#909090;" y="395">meta-chart.com</text></svg>